<svg id="Layer_1" data-name="Layer 1" xmlns="http://www.w3.org/2000/svg" viewBox="0 0 1200 1200"><defs><style>.cls-1{fill:#e06565;}.cls-2,.cls-49{fill:#545352;}.cls-3{fill:#444;}.cls-4{fill:#787874;}.cls-5{fill:#a0a0a0;}.cls-6{fill:#eaeaea;}.cls-24,.cls-7{fill:#fff;}.cls-8{fill:#5e5e5e;}.cls-9{fill:#d6d6d6;}.cls-10{fill:#93bc95;}.cls-11{fill:#6d6d6d;}.cls-12{fill:#494949;}.cls-13{fill:#636363;}.cls-14{fill:#95bab3;}.cls-15{opacity:0.13;}.cls-16{fill:#e5e5e5;}.cls-17{fill:#e87a5d;}.cls-18{fill:#606060;}.cls-19{fill:#7f7f7f;}.cls-20{fill:#424242;}.cls-21{opacity:0.22;}.cls-22{fill:#a8cccb;}.cls-23{fill:#686463;}.cls-24{opacity:0.1;}.cls-25{fill:#595959;}.cls-26{fill:#8c9360;}.cls-27{fill:#545151;}.cls-28{fill:#e5be5e;}.cls-29{fill:#ede4bc;}.cls-30{fill:#b79780;}.cls-31{fill:#c1c1c1;}.cls-32{fill:#6b6b6b;}.cls-33{fill:#ededed;}.cls-34{fill:#a7bfc1;}.cls-35{fill:#90bf90;}.cls-36{fill:#5b5b5b;}.cls-37{fill:#8ab1ba;}.cls-38{fill:#677e82;}.cls-39{fill:#f2f2f2;}.cls-40{fill:#f3f3f3;}.cls-41{fill:#f4a173;}.cls-42{fill:#c64739;}.cls-43{fill:#6aa5a5;}.cls-44{fill:#d641ac;}.cls-45{fill:#808958;}.cls-46{fill:#8b2b8e;}.cls-47{fill:#559193;}.cls-48{fill:#cfd6ce;}.cls-49{opacity:0.2;}.cls-50{fill:#777675;}.cls-51{fill:#a1c9c8;}.cls-52{fill:#ff9a55;}.cls-53{fill:#edefee;}.cls-54{fill:#d39163;}.cls-55{fill:#f4f4f4;}.cls-56{fill:#ef8a45;}.cls-57{fill:#c6c6c6;}.cls-58{fill:#f4b3bf;}.cls-59{fill:#757370;}.cls-60{fill:#48493f;}.cls-61{fill:#7fb3bf;}.cls-62{fill:#444243;}.cls-63{fill:#d7d9cf;}.cls-64{fill:#eace5c;}.cls-65{fill:#b7a34e;}.cls-66{fill:#353535;}.cls-67{fill:#f9c37d;}.cls-68{fill:#8eb8bc;}.cls-69{fill:#bbc4bb;}.cls-70{fill:#b0c1b0;}.cls-71{fill:#959695;}.cls-72{fill:#d8d3d0;}.cls-73{fill:#83aeb2;}.cls-74{fill:#bae5ba;}.cls-75{fill:#b53e3e;}.cls-76{fill:#ce5249;}.cls-77{fill:#933434;}.cls-78{fill:#db5858;}.cls-79{fill:#ccc;}.cls-80{fill:#dbdbdb;}.cls-81{fill:#9dc6c4;}.cls-82{fill:#afe0af;}.cls-83{fill:#c7c7c7;}.cls-84{fill:#b5b5b5;}.cls-85{fill:#dedede;}.cls-86{fill:#b8a6bc;}.cls-87{fill:#d1d1d1;}.cls-88{fill:#b2b2b2;}.cls-89{fill:#7fa073;}.cls-90{fill:#d8d8d8;}.cls-91{fill:#739173;}.cls-92{fill:#cecccc;}.cls-93{fill:#e8e8e8;}.cls-94{fill:#c4c2c2;}.cls-95{fill:#ead87d;}.cls-96{fill:#474747;}.cls-97{fill:#74a8a7;}.cls-98{fill:#3f3c3c;}.cls-99{fill:#4c4c4c;}</style></defs><title>about</title><rect class="cls-1" x="300" y="899.99" width="300" height="300.01"/><rect class="cls-2" x="501.21" y="1009.37" width="6.59" height="22.87" rx="1.5" ry="1.5"/><rect class="cls-2" x="498.22" y="1045.69" width="6.77" height="24.15"/><rect class="cls-3" x="503.6" y="1045.69" width="1.39" height="24.15"/><rect class="cls-2" x="504.94" y="1043.81" width="10.68" height="27.92" rx="3" ry="3"/><rect class="cls-4" x="504.94" y="1046.13" width="10.68" height="0.97"/><rect class="cls-4" x="504.94" y="1048.92" width="10.68" height="0.97"/><rect class="cls-4" x="504.94" y="1051.7" width="10.68" height="0.97"/><rect class="cls-4" x="504.94" y="1054.49" width="10.68" height="0.97"/><rect class="cls-4" x="504.94" y="1057.28" width="10.68" height="0.97"/><rect class="cls-4" x="504.94" y="1060.07" width="10.68" height="0.97"/><rect class="cls-4" x="504.94" y="1062.86" width="10.68" height="0.97"/><rect class="cls-4" x="504.94" y="1065.65" width="10.68" height="0.96"/><rect class="cls-4" x="504.94" y="1068.44" width="10.68" height="0.97"/><rect class="cls-2" x="500.23" y="1095.07" width="7.58" height="18.26" rx="2.93" ry="2.93"/><rect class="cls-2" x="387.45" y="1085.32" width="11.74" height="30.74" rx="3" ry="3"/><rect class="cls-2" x="390" y="1005.75" width="9.19" height="24.06" rx="3" ry="3"/><ellipse class="cls-2" cx="388.92" cy="1057.77" rx="4.54" ry="9.28"/><rect class="cls-2" x="387.88" y="1047.26" width="7.74" height="21.02" rx="2.99" ry="2.99"/><path class="cls-4" d="M388.79,1048a2,2,0,0,0-.29.5H396a2,2,0,0,0-.29-.5Z" transform="translate(-0.48)"/><path class="cls-4" d="M388.79,1067.5h6.9a2,2,0,0,0,.29-.5H388.5A2,2,0,0,0,388.79,1067.5Z" transform="translate(-0.48)"/><rect class="cls-4" x="387.88" y="1065.54" width="7.74" height="0.5"/><rect class="cls-4" x="387.88" y="1064.08" width="7.74" height="0.5"/><rect class="cls-4" x="387.88" y="1062.62" width="7.74" height="0.5"/><rect class="cls-4" x="387.88" y="1061.16" width="7.74" height="0.5"/><rect class="cls-4" x="387.88" y="1059.7" width="7.74" height="0.5"/><rect class="cls-4" x="387.88" y="1056.78" width="7.74" height="0.5"/><rect class="cls-4" x="387.88" y="1055.33" width="7.74" height="0.5"/><rect class="cls-4" x="387.88" y="1053.87" width="7.74" height="0.5"/><rect class="cls-4" x="387.88" y="1052.41" width="7.74" height="0.5"/><rect class="cls-4" x="387.88" y="1050.95" width="7.74" height="0.5"/><rect class="cls-4" x="387.88" y="1049.49" width="7.74" height="0.5"/><rect class="cls-4" x="387.88" y="1058.24" width="7.74" height="0.5"/><rect class="cls-4" x="395.44" y="997.87" width="106.76" height="131.83" rx="4.5" ry="4.5"/><rect class="cls-4" x="408.23" y="977.86" width="81.19" height="12.9"/><rect class="cls-2" x="398.31" y="989.1" width="101.01" height="149.37" rx="4.5" ry="4.5"/><rect class="cls-4" x="406.4" y="997.64" width="84.84" height="131.96" rx="32.81" ry="32.81"/><path class="cls-2" d="M439.69,999.19H458a31.17,31.17,0,0,1,31.17,31.17v66.51A31.17,31.17,0,0,1,458,1128H439.69a31.17,31.17,0,0,1-31.17-31.17v-66.51A31.18,31.18,0,0,1,439.69,999.19Z"/><circle class="cls-5" cx="448.82" cy="1031.54" r="28.49"/><circle class="cls-2" cx="448.82" cy="1031.54" r="25.01"/><circle class="cls-6" cx="448.82" cy="1031.54" r="20.2"/><path class="cls-7" d="M435,1036.7a19.42,19.42,0,0,1,30.29-16.1,19.42,19.42,0,1,0-27,27A19.32,19.32,0,0,1,435,1036.7Z" transform="translate(-0.48)"/><circle class="cls-5" cx="448.82" cy="1092.08" r="32.11"/><circle class="cls-2" cx="448.82" cy="1092.08" r="28.18"/><circle class="cls-6" cx="448.82" cy="1092.08" r="22.77"/><path class="cls-7" d="M433.23,1097.89a21.89,21.89,0,0,1,34.14-18.14,21.89,21.89,0,1,0-30.39,30.4A21.78,21.78,0,0,1,433.23,1097.89Z" transform="translate(-0.48)"/><circle class="cls-5" cx="473.78" cy="1059.18" r="8.4"/><circle class="cls-6" cx="473.78" cy="1059.18" r="7.07"/><circle class="cls-2" cx="473.78" cy="1059.18" r="3.74"/><circle class="cls-5" cx="423.86" cy="1059.18" r="8.4"/><circle class="cls-6" cx="423.86" cy="1059.18" r="7.07"/><circle class="cls-2" cx="423.86" cy="1059.18" r="3.74"/><rect class="cls-2" x="401.17" y="956.88" width="95.31" height="26.03" rx="3" ry="3"/><rect class="cls-8" x="402.68" y="958.06" width="92.28" height="23.67" rx="3" ry="3"/><path class="cls-9" d="M425.5,963.93q0,1.73-1.32,1.73a1.31,1.31,0,0,1-1.06-.48,1.56,1.56,0,0,0,.6-.69,2.16,2.16,0,0,0,.26-1,1.35,1.35,0,0,0-.26-.84,1,1,0,0,0-.83-.34,1.68,1.68,0,0,0-1.06.38,4.29,4.29,0,0,0-.92,1,11.51,11.51,0,0,0-1.42,3.36,14.49,14.49,0,0,0-.55,3.72,4.54,4.54,0,0,0,.49,2.41,1.85,1.85,0,0,0,1.68.75,4.41,4.41,0,0,0,3.73-1.87l.43.19a5.34,5.34,0,0,1-3.41,3.15,5.82,5.82,0,0,1-1.94.35h-.05a4,4,0,0,1-3.05-1.08,4.93,4.93,0,0,1-1-3.41,14.8,14.8,0,0,1,.78-4.69,8.35,8.35,0,0,1,2.67-4.13,4.93,4.93,0,0,1,3.09-1,2.93,2.93,0,0,1,2.88,1.36A2.45,2.45,0,0,1,425.5,963.93Z" transform="translate(-0.48)"/><path class="cls-9" d="M429.26,962.94a4.1,4.1,0,0,0-1.93,1.53,4.49,4.49,0,0,0-.69,2.55,2.44,2.44,0,0,0,.21,1.14.26.26,0,0,1,0,.14q-1.5,0-1.87-1a2.5,2.5,0,0,1-.13-.86,4.26,4.26,0,0,1,2.11-3.36,7.63,7.63,0,0,1,4.46-1.51q.29,0,.75,0l-2.88,13.44a6.45,6.45,0,0,1,1.62.63l1.36.74a7.09,7.09,0,0,0,3.31,1,4,4,0,0,0,1.57-.3,4.94,4.94,0,0,1-.66,2.14,1.5,1.5,0,0,1-1.28.8,5,5,0,0,1-2.86-1.28l-2.14-1.65a5.82,5.82,0,0,0-3.36-1.33h-.21l-.22,0Z" transform="translate(-0.48)"/><path class="cls-9" d="M435.89,974.83a9.7,9.7,0,0,0-.18,1.71,1.82,1.82,0,0,0,.26,1.07,3.73,3.73,0,0,1-1.55-.23,1.78,1.78,0,0,1-1-1.76,14.29,14.29,0,0,1,1.63-5.45q.51-1.1,1.12-2.17a5,5,0,0,0-1.44.27,1.23,1.23,0,0,0-.75.7q.08,0,.16.19a1.15,1.15,0,0,1,.08.46.56.56,0,0,1-.31.47,1.18,1.18,0,0,1-.64.2,1.37,1.37,0,0,1-.94-.29,1,1,0,0,1-.32-.78,1.94,1.94,0,0,1,1.09-1.65,5.15,5.15,0,0,1,2.73-.68q.37,0,1,.05a19.66,19.66,0,0,1,3.22-4,5,5,0,0,1,3.29-1.57,3.37,3.37,0,0,1,1.48.27l-2.93,13.78h-2.7l1.44-6.79a7.6,7.6,0,0,0-2.51-.68A29.79,29.79,0,0,0,435.89,974.83Zm2.64-7.63a12.71,12.71,0,0,1,2.29.65l1.09-5.09Q440.3,963.63,438.53,967.19Z" transform="translate(-0.48)"/><path class="cls-9" d="M452.18,965.17a1.83,1.83,0,0,0,.84-1.74,1.24,1.24,0,0,0-.3-.75,1.31,1.31,0,0,0-1.09-.38,1.79,1.79,0,0,0-1.26.43,1.43,1.43,0,0,0-.47,1.11,2.74,2.74,0,0,0,.18,1.1,4.31,4.31,0,0,0,1.15,1.48l.77.69a7.51,7.51,0,0,1,1.39,1.52,4.79,4.79,0,0,1,.72,2.47,4.32,4.32,0,0,1-1.61,3.6,5.67,5.67,0,0,1-3.66,1.16q-2.72,0-3.65-1.75a3.47,3.47,0,0,1,.52-3.72,2.63,2.63,0,0,1,1.88-.82,1.7,1.7,0,0,1,1.49.63,1.09,1.09,0,0,1,.19.6,2.12,2.12,0,0,0-2,.94,1.46,1.46,0,0,0-.2.76,1.92,1.92,0,0,0,.47,1.33,1.74,1.74,0,0,0,1.38.53,2,2,0,0,0,1.51-.65,2.31,2.31,0,0,0,.61-1.65,4.1,4.1,0,0,0-.28-1.64,5.77,5.77,0,0,0-.71-1.2,12.2,12.2,0,0,0-.92-1.07q-.49-.51-.92-1a3.73,3.73,0,0,1-1-2.35,2.91,2.91,0,0,1,1.25-2.4,4.91,4.91,0,0,1,3.08-1q2.26,0,2.85,1.37a2.6,2.6,0,0,1,.16,1,1.91,1.91,0,0,1-.41,1.2,1.25,1.25,0,0,1-1,.53A1.19,1.19,0,0,1,452.18,965.17Z" transform="translate(-0.48)"/><path class="cls-9" d="M462.85,965.17a1.83,1.83,0,0,0,.84-1.74,1.24,1.24,0,0,0-.3-.75,1.31,1.31,0,0,0-1.09-.38,1.79,1.79,0,0,0-1.26.43,1.43,1.43,0,0,0-.47,1.11,2.74,2.74,0,0,0,.18,1.1,4.31,4.31,0,0,0,1.15,1.48l.77.69a7.5,7.5,0,0,1,1.39,1.52,4.78,4.78,0,0,1,.72,2.47,4.32,4.32,0,0,1-1.61,3.6,5.67,5.67,0,0,1-3.66,1.16q-2.72,0-3.65-1.75a3.47,3.47,0,0,1,.52-3.72,2.63,2.63,0,0,1,1.88-.82,1.7,1.7,0,0,1,1.49.63,1.09,1.09,0,0,1,.19.6,2.12,2.12,0,0,0-2,.94,1.46,1.46,0,0,0-.2.76,1.92,1.92,0,0,0,.47,1.33,1.74,1.74,0,0,0,1.38.53,2,2,0,0,0,1.51-.65,2.31,2.31,0,0,0,.61-1.65,4.1,4.1,0,0,0-.28-1.64,5.78,5.78,0,0,0-.71-1.2,12.25,12.25,0,0,0-.92-1.07q-.49-.51-.92-1a3.73,3.73,0,0,1-1-2.35,2.91,2.91,0,0,1,1.25-2.4,4.91,4.91,0,0,1,3.08-1q2.26,0,2.85,1.37a2.6,2.6,0,0,1,.16,1,1.91,1.91,0,0,1-.41,1.2,1.25,1.25,0,0,1-1,.53A1.19,1.19,0,0,1,462.85,965.17Z" transform="translate(-0.48)"/><path class="cls-9" d="M470.2,962.75a4.05,4.05,0,0,0-2.62,4.09,2.44,2.44,0,0,0,.21,1.14.25.25,0,0,1,0,.13q-1.5,0-1.87-1a2.51,2.51,0,0,1-.13-.86,3.2,3.2,0,0,1,.59-1.82,6.22,6.22,0,0,1,1.52-1.55,7.64,7.64,0,0,1,4.46-1.5,7.49,7.49,0,0,1,.75,0l-3,14H467.5Z" transform="translate(-0.48)"/><path class="cls-9" d="M482.77,963.93q0,1.73-1.32,1.73a1.31,1.31,0,0,1-1.06-.48,1.56,1.56,0,0,0,.6-.69,2.16,2.16,0,0,0,.26-1,1.35,1.35,0,0,0-.26-.84,1,1,0,0,0-.83-.34,1.68,1.68,0,0,0-1.06.38,4.29,4.29,0,0,0-.92,1,11.52,11.52,0,0,0-1.42,3.36,14.49,14.49,0,0,0-.55,3.72,4.54,4.54,0,0,0,.49,2.41,1.85,1.85,0,0,0,1.68.75,4.41,4.41,0,0,0,3.73-1.87l.43.19a5.34,5.34,0,0,1-3.41,3.15,5.82,5.82,0,0,1-1.94.35h-.05a4,4,0,0,1-3.05-1.08,4.93,4.93,0,0,1-1-3.41,14.81,14.81,0,0,1,.78-4.69,8.34,8.34,0,0,1,2.67-4.13,4.93,4.93,0,0,1,3.09-1,2.93,2.93,0,0,1,2.88,1.36A2.45,2.45,0,0,1,482.77,963.93Z" transform="translate(-0.48)"/><rect class="cls-10" x="300" y="299.96" width="300" height="300.01"/><path class="cls-2" d="M539.78,519.94a3.12,3.12,0,0,1-3.09,3.15H364.28a3.12,3.12,0,0,1-3.09-3.15V409.54a3.12,3.12,0,0,1,3.09-3.15H536.69a3.12,3.12,0,0,1,3.09,3.15Z" transform="translate(-0.48)"/><rect class="cls-11" x="407.06" y="497.25" width="24.86" height="9.9" rx="3.94" ry="3.94"/><path class="cls-6" d="M412.87,498h13.23a3.38,3.38,0,0,1,3.38,3.38v1.72a3.39,3.39,0,0,1-3.39,3.39H412.87a3.39,3.39,0,0,1-3.39-3.39v-1.72a3.38,3.38,0,0,1,3.38-3.38Z"/><path class="cls-12" d="M396,406.39H364.28a3.12,3.12,0,0,0-3.09,3.15v110.4a3.12,3.12,0,0,0,3.09,3.15H396Z" transform="translate(-0.48)"/><path class="cls-7" d="M507.24,413.45,495,386.6a.76.76,0,0,0-.66-.48h-57.1a.75.75,0,0,0-.66.48l-12.27,26.85a1.17,1.17,0,0,0,0,1,.76.76,0,0,0,.66.48h81.64a.75.75,0,0,0,.66-.48A1.19,1.19,0,0,0,507.24,413.45Z" transform="translate(-0.48)"/><path class="cls-6" d="M498.62,412l-9.71-19.9a.6.6,0,0,0-.53-.36H443.15a.6.6,0,0,0-.53.36L432.9,412a.81.81,0,0,0,0,.72.6.6,0,0,0,.53.36h64.66a.59.59,0,0,0,.53-.36A.83.83,0,0,0,498.62,412Z" transform="translate(-0.48)"/><path class="cls-2" d="M397.74,406.21c0,.19-.23.34-.52.34H382.11c-.29,0-.52-.14-.52-.34v-5.54c0-.19.23-.33.52-.33h15.11c.28,0,.52.15.52.33Z" transform="translate(-0.48)"/><path class="cls-7" d="M536.69,406.39H364.28a3.12,3.12,0,0,0-3.09,3.15v20.67h178.6V409.54A3.12,3.12,0,0,0,536.69,406.39Z" transform="translate(-0.48)"/><rect class="cls-5" x="370.87" y="411.77" width="24.66" height="12.68" rx="3" ry="3"/><rect class="cls-6" x="371.75" y="412.65" width="22.89" height="10.92" rx="3" ry="3"/><rect class="cls-5" x="371.75" y="413.22" width="22.89" height="0.26"/><rect class="cls-5" x="371.75" y="422.73" width="22.89" height="0.26"/><rect class="cls-5" x="371.75" y="421.94" width="22.89" height="0.26"/><rect class="cls-5" x="371.75" y="420.36" width="22.89" height="0.26"/><rect class="cls-5" x="371.75" y="421.15" width="22.89" height="0.26"/><rect class="cls-5" x="371.75" y="419.56" width="22.89" height="0.26"/><rect class="cls-5" x="371.75" y="418.77" width="22.89" height="0.26"/><rect class="cls-5" x="371.75" y="417.98" width="22.89" height="0.26"/><rect class="cls-5" x="371.75" y="417.19" width="22.89" height="0.26"/><rect class="cls-5" x="371.75" y="416.39" width="22.89" height="0.26"/><rect class="cls-5" x="371.75" y="415.6" width="22.89" height="0.26"/><rect class="cls-5" x="371.75" y="414.81" width="22.89" height="0.26"/><rect class="cls-5" x="371.75" y="414.02" width="22.89" height="0.26"/><path class="cls-7" d="M361.18,517.28v2.65a3.12,3.12,0,0,0,3.09,3.15H536.69a3.12,3.12,0,0,0,3.09-3.15v-2.65Z" transform="translate(-0.48)"/><circle class="cls-5" cx="465.27" cy="463.5" r="59.59"/><path class="cls-2" d="M518.06,463.49a52.31,52.31,0,1,1-52.31-52.31A52.31,52.31,0,0,1,518.06,463.49Z" transform="translate(-0.48)"/><path class="cls-6" d="M508,463.49a42.26,42.26,0,1,1-42.26-42.25A42.26,42.26,0,0,1,508,463.49Z" transform="translate(-0.48)"/><path class="cls-7" d="M435.93,474.29a40.62,40.62,0,0,1,63.36-33.67A40.63,40.63,0,1,0,442.88,497,40.41,40.41,0,0,1,435.93,474.29Z" transform="translate(-0.48)"/><rect class="cls-13" x="530.77" y="435.8" width="4.38" height="74.53" rx="1.75" ry="1.75"/><rect class="cls-2" x="366.82" y="435.8" width="4.38" height="74.53" rx="1.75" ry="1.75"/><circle class="cls-5" cx="528.42" cy="418.11" r="3.87"/><circle class="cls-6" cx="528.42" cy="418.11" r="3.24"/><rect class="cls-14" x="900" y="599.97" width="300" height="300.01"/><rect class="cls-7" x="1062.82" y="711.1" width="20.36" height="18.66"/><circle class="cls-2" cx="1073" cy="688.02" r="31.57"/><path class="cls-13" d="M1048.25,692.94A29.46,29.46,0,0,1,1097,670.66,29.47,29.47,0,1,0,1053.73,710,29.33,29.33,0,0,1,1048.25,692.94Z" transform="translate(-0.48)"/><circle class="cls-5" cx="1072.99" cy="688.02" r="17.8"/><circle class="cls-2" cx="1072.99" cy="688.02" r="15.62"/><circle class="cls-6" cx="1072.99" cy="688.02" r="12.62"/><path class="cls-7" d="M1064.57,691.25a12.13,12.13,0,0,1,18.93-10.06A12.14,12.14,0,1,0,1066.65,698,12.07,12.07,0,0,1,1064.57,691.25Z" transform="translate(-0.48)"/><rect class="cls-3" x="1057.54" y="726.56" width="30.91" height="15.53" rx="6.19" ry="6.19"/><path class="cls-3" d="M1003.7,734.81c0,.21-.25.36-.55.36H986.94c-.31,0-.56-.15-.56-.36v-5.94c0-.2.25-.36.56-.36h16.21c.3,0,.55.16.55.36Z" transform="translate(-0.48)"/><rect class="cls-2" x="964.31" y="733.84" width="174.46" height="101.49" rx="10.5" ry="10.5"/><rect class="cls-5" x="1104.29" y="738.7" width="22.39" height="11.52" rx="3" ry="3"/><rect class="cls-6" x="1105.09" y="739.5" width="20.79" height="9.92" rx="3" ry="3"/><rect class="cls-5" x="1105.09" y="740.02" width="20.79" height="0.24"/><rect class="cls-5" x="1105.09" y="748.65" width="20.79" height="0.24"/><rect class="cls-5" x="1105.09" y="747.93" width="20.79" height="0.24"/><rect class="cls-5" x="1105.09" y="746.49" width="20.79" height="0.24"/><rect class="cls-5" x="1105.09" y="747.21" width="20.79" height="0.24"/><rect class="cls-5" x="1105.09" y="745.77" width="20.79" height="0.24"/><rect class="cls-5" x="1105.09" y="745.05" width="20.79" height="0.24"/><rect class="cls-5" x="1105.09" y="744.33" width="20.79" height="0.24"/><rect class="cls-5" x="1105.09" y="743.61" width="20.79" height="0.24"/><rect class="cls-5" x="1105.09" y="742.9" width="20.79" height="0.24"/><rect class="cls-5" x="1105.09" y="742.18" width="20.79" height="0.24"/><rect class="cls-5" x="1105.09" y="741.46" width="20.79" height="0.24"/><rect class="cls-5" x="1105.09" y="740.74" width="20.79" height="0.24"/><g class="cls-15"><path class="cls-7" d="M972.29,735.72a4.24,4.24,0,0,0-.82.08v97.56a4.23,4.23,0,0,0,.82.08h.81V735.72Z" transform="translate(-0.48)"/><path class="cls-7" d="M1131.76,735.72H1131v97.73h.81a4.23,4.23,0,0,0,.82-.08V735.8A4.24,4.24,0,0,0,1131.76,735.72Z" transform="translate(-0.48)"/></g><rect class="cls-7" x="964.31" y="755.69" width="174.46" height="57.78"/><rect class="cls-16" x="964.31" y="755.69" width="174.46" height="2.06"/><rect class="cls-16" x="964.31" y="811.41" width="174.46" height="2.06"/><rect class="cls-11" x="1077.16" y="817.37" width="19.51" height="7.77" rx="3.1" ry="3.1"/><rect class="cls-6" x="1079.07" y="817.92" width="15.7" height="6.67" rx="2.66" ry="2.66"/><circle class="cls-5" cx="1051.54" cy="784.58" r="49.6"/><path class="cls-2" d="M1095.56,784.58A43.54,43.54,0,1,1,1052,741,43.54,43.54,0,0,1,1095.56,784.58Z" transform="translate(-0.48)"/><path class="cls-6" d="M1087.2,784.58A35.17,35.17,0,1,1,1052,749.41,35.17,35.17,0,0,1,1087.2,784.58Z" transform="translate(-0.48)"/><path class="cls-7" d="M1027.2,793.57a33.81,33.81,0,0,1,52.74-28,33.82,33.82,0,1,0-46.95,47A33.64,33.64,0,0,1,1027.2,793.57Z" transform="translate(-0.48)"/><rect class="cls-17" width="300" height="300.01"/><rect class="cls-12" x="199.32" y="85.12" width="4.63" height="13.18"/><rect class="cls-2" x="203.1" y="84.09" width="5.83" height="15.24" rx="2.32" ry="2.32"/><rect class="cls-4" x="203.34" y="85.62" width="5.35" height="0.5"/><rect class="cls-4" x="203.34" y="87.08" width="5.35" height="0.51"/><rect class="cls-4" x="203.34" y="88.54" width="5.35" height="0.5"/><rect class="cls-4" x="203.34" y="90" width="5.35" height="0.5"/><rect class="cls-4" x="203.34" y="91.46" width="5.35" height="0.5"/><rect class="cls-4" x="203.34" y="92.92" width="5.35" height="0.5"/><rect class="cls-4" x="203.34" y="94.38" width="5.35" height="0.51"/><rect class="cls-4" x="203.34" y="95.84" width="5.35" height="0.5"/><rect class="cls-4" x="203.34" y="97.3" width="5.35" height="0.51"/><rect class="cls-3" x="96.5" y="81.81" width="3.88" height="11.74"/><ellipse class="cls-3" cx="92.06" cy="87.68" rx="3.34" ry="6.44"/><rect class="cls-2" x="91.29" y="79.95" width="5.69" height="15.46" rx="2.27" ry="2.27"/><rect class="cls-2" x="98.9" y="74.6" width="102.09" height="36.68" rx="1.5" ry="1.5"/><path class="cls-12" d="M200.36,74.6H100.51a1.12,1.12,0,0,0-1.12,1.12v3.4H201.48v-3.4A1.12,1.12,0,0,0,200.36,74.6Z" transform="translate(-0.48)"/><rect class="cls-12" x="114.38" y="67.29" width="71.13" height="38.94" rx="4.5" ry="4.5"/><rect class="cls-18" x="116.43" y="69.4" width="67.03" height="36.7" rx="4.5" ry="4.5"/><path class="cls-19" d="M117.15,71a3.22,3.22,0,0,0-.23,1.16h67a3.22,3.22,0,0,0-.23-1.16Z" transform="translate(-0.48)"/><path class="cls-19" d="M117.15,104.21h66.56a3.21,3.21,0,0,0,.23-1.16h-67A3.22,3.22,0,0,0,117.15,104.21Z" transform="translate(-0.48)"/><rect class="cls-19" x="116.43" y="99.5" width="67.03" height="1.16"/><rect class="cls-19" x="116.43" y="95.94" width="67.03" height="1.15"/><rect class="cls-19" x="116.43" y="92.38" width="67.03" height="1.16"/><rect class="cls-19" x="116.43" y="88.83" width="67.03" height="1.16"/><rect class="cls-19" x="116.43" y="85.27" width="67.03" height="1.16"/><rect class="cls-19" x="116.43" y="81.71" width="67.03" height="1.16"/><rect class="cls-19" x="116.43" y="78.16" width="67.03" height="1.15"/><rect class="cls-19" x="116.43" y="74.6" width="67.03" height="1.16"/><rect class="cls-12" x="138.56" y="75.18" width="22.77" height="22.78" rx="4.5" ry="4.5"/><rect class="cls-2" x="140" y="76.62" width="19.89" height="19.89" rx="4.5" ry="4.5"/><circle class="cls-5" cx="149.95" cy="86.56" r="9.59"/><circle class="cls-2" cx="149.95" cy="86.56" r="8.42"/><circle class="cls-12" cx="149.95" cy="86.56" r="6.8"/><path class="cls-20" d="M145.63,88.3a6.54,6.54,0,0,1,10.2-5.42A6.54,6.54,0,1,0,146.75,92,6.51,6.51,0,0,1,145.63,88.3Z" transform="translate(-0.48)"/><rect class="cls-12" x="85.27" y="103.25" width="129.47" height="129.47" rx="10.5" ry="10.5"/><rect class="cls-2" x="90.71" y="108.69" width="118.59" height="118.59"/><circle class="cls-12" cx="150" cy="164.11" r="39.9"/><circle class="cls-5" cx="150" cy="164.11" r="34.92"/><circle class="cls-2" cx="150" cy="164.11" r="30.66"/><circle class="cls-6" cx="150" cy="164.11" r="24.77"/><path class="cls-7" d="M133,170.44a23.81,23.81,0,0,1,37.13-19.74,23.81,23.81,0,1,0-33.06,33.06A23.69,23.69,0,0,1,133,170.44Z" transform="translate(-0.48)"/><rect class="cls-5" x="97.62" y="114.2" width="25.13" height="12.93" rx="3" ry="3"/><rect class="cls-6" x="98.52" y="115.09" width="23.34" height="11.13" rx="3" ry="3"/><rect class="cls-5" x="98.52" y="115.68" width="23.34" height="0.27"/><rect class="cls-5" x="98.52" y="125.37" width="23.34" height="0.27"/><rect class="cls-5" x="98.52" y="124.56" width="23.34" height="0.27"/><rect class="cls-5" x="98.52" y="122.95" width="23.34" height="0.27"/><rect class="cls-5" x="98.52" y="123.76" width="23.34" height="0.27"/><rect class="cls-5" x="98.52" y="122.14" width="23.34" height="0.27"/><rect class="cls-5" x="98.52" y="121.33" width="23.34" height="0.27"/><rect class="cls-5" x="98.52" y="120.52" width="23.34" height="0.27"/><rect class="cls-5" x="98.52" y="119.72" width="23.34" height="0.27"/><rect class="cls-5" x="98.52" y="118.91" width="23.34" height="0.27"/><rect class="cls-5" x="98.52" y="118.1" width="23.34" height="0.27"/><rect class="cls-5" x="98.52" y="117.29" width="23.34" height="0.27"/><rect class="cls-5" x="98.52" y="116.48" width="23.34" height="0.27"/><rect class="cls-11" x="90.71" y="209.64" width="118.59" height="9.45"/><rect class="cls-7" x="92.51" y="211.16" width="71.39" height="6.42"/><rect class="cls-5" x="165.85" y="211.16" width="41.64" height="6.42"/><g class="cls-21"><path class="cls-7" d="M90.16,106.83V230.38a8.34,8.34,0,0,0,1.86.68V106.14A8.34,8.34,0,0,0,90.16,106.83Z" transform="translate(-0.48)"/><path class="cls-7" d="M208.94,106.14V231.06a8.34,8.34,0,0,0,1.86-.68V106.83A8.34,8.34,0,0,0,208.94,106.14Z" transform="translate(-0.48)"/></g><rect class="cls-22" x="300" y="599.97" width="300" height="300.01"/><path class="cls-2" d="M510.81,678.49H390.16c-3.37,0-6.1,3.32-6.1,7.41v10a7.94,7.94,0,0,0,2.65,6.1V688.46a1.24,1.24,0,0,1,1.12-1.33H513.14a1.24,1.24,0,0,1,1.12,1.33V702a8,8,0,0,0,2.64-6.1v-10C516.91,681.81,514.18,678.49,510.81,678.49Z" transform="translate(-0.48)"/><rect class="cls-23" x="383.58" y="690.27" width="2.65" height="17.28"/><rect class="cls-23" x="513.78" y="690.27" width="2.64" height="17.28"/><rect class="cls-23" x="389.4" y="680.52" width="120.67" height="1.15"/><rect class="cls-23" x="389.4" y="684.03" width="120.67" height="1.15"/><rect class="cls-2" x="360.93" y="701.23" width="178.14" height="120.24" rx="0.86" ry="0.86"/><path class="cls-24" d="M537.14,817.77a.83.83,0,0,1-.84.82H364.66a.83.83,0,0,1-.84-.82V704.93a.83.83,0,0,1,.84-.82H536.3a.83.83,0,0,1,.84.82Z" transform="translate(-0.48)"/><rect class="cls-25" x="514.99" y="707.21" width="19.39" height="19.39"/><rect class="cls-26" x="515.89" y="708.12" width="17.58" height="17.58"/><circle class="cls-27" cx="524.68" cy="716.91" r="8.09"/><circle class="cls-19" cx="524.68" cy="716.91" r="7.41"/><circle class="cls-27" cx="524.68" cy="716.91" r="1.64"/><circle class="cls-27" cx="524.68" cy="710.48" r="0.59"/><circle class="cls-27" cx="524.68" cy="712.26" r="0.59"/><circle class="cls-27" cx="524.68" cy="714.03" r="0.59"/><circle class="cls-27" cx="531.11" cy="716.91" r="0.59"/><circle class="cls-27" cx="529.33" cy="716.91" r="0.59"/><circle class="cls-27" cx="527.56" cy="716.91" r="0.59"/><circle class="cls-27" cx="524.68" cy="723.33" r="0.59"/><circle class="cls-27" cx="524.68" cy="721.56" r="0.59"/><circle class="cls-27" cx="524.68" cy="719.78" r="0.59"/><circle class="cls-27" cx="518.26" cy="716.91" r="0.59"/><circle class="cls-27" cx="520.03" cy="716.91" r="0.59"/><circle class="cls-27" cx="521.81" cy="716.91" r="0.59"/><circle class="cls-27" cx="520.62" cy="712.36" r="0.59" transform="translate(-351.68 576.57) rotate(-44.99)"/><circle class="cls-27" cx="521.88" cy="713.62" r="0.59" transform="translate(-352.22 577.98) rotate(-45)"/><circle class="cls-27" cx="523.13" cy="714.87" r="0.59" transform="translate(-352.83 579.77) rotate(-45.03)"/><circle class="cls-27" cx="529.71" cy="712.36" r="0.59" transform="translate(-349.07 583.31) rotate(-45.01)"/><circle class="cls-27" cx="528.45" cy="713.62" r="0.59" transform="translate(-350.36 583.06) rotate(-45.02)"/><circle class="cls-27" cx="527.2" cy="714.87" r="0.59" transform="translate(-351.48 581.65) rotate(-44.97)"/><circle class="cls-27" cx="529.71" cy="721.45" r="0.59" transform="translate(-355.57 586.45) rotate(-45.04)"/><circle class="cls-27" cx="528.45" cy="720.19" r="0.59" transform="translate(-354.95 584.55) rotate(-45)"/><circle class="cls-27" cx="527.2" cy="718.94" r="0.59" transform="translate(-354.39 583.04) rotate(-44.98)"/><circle class="cls-27" cx="520.62" cy="721.45" r="0.59" transform="translate(-358.06 578.97) rotate(-44.97)"/><circle class="cls-27" cx="521.88" cy="720.19" r="0.59" transform="translate(-356.84 579.71) rotate(-44.98)"/><circle class="cls-27" cx="523.13" cy="718.94" r="0.59" transform="translate(-355.69 580.85) rotate(-45.02)"/><circle class="cls-27" cx="523.16" cy="713.02" r="0.38"/><circle class="cls-27" cx="526.2" cy="713.02" r="0.38"/><circle class="cls-27" cx="528.57" cy="715.39" r="0.38"/><circle class="cls-27" cx="528.57" cy="718.42" r="0.38"/><circle class="cls-27" cx="526.2" cy="720.8" r="0.38"/><circle class="cls-27" cx="523.16" cy="720.8" r="0.38"/><circle class="cls-27" cx="520.79" cy="718.42" r="0.38"/><circle class="cls-27" cx="520.79" cy="715.39" r="0.38"/><circle class="cls-27" cx="522.49" cy="711.3" r="0.55"/><circle class="cls-27" cx="526.87" cy="711.3" r="0.55"/><circle class="cls-27" cx="530.29" cy="714.72" r="0.55"/><circle class="cls-27" cx="530.29" cy="719.1" r="0.55"/><circle class="cls-27" cx="526.87" cy="722.52" r="0.55"/><circle class="cls-27" cx="522.49" cy="722.52" r="0.55"/><circle class="cls-27" cx="519.08" cy="719.1" r="0.55"/><circle class="cls-27" cx="519.08" cy="714.72" r="0.55"/><rect class="cls-25" x="365.62" y="707.21" width="148.38" height="19.39"/><rect class="cls-28" x="366.9" y="708.42" width="145.81" height="16.98"/><rect class="cls-23" x="370.08" y="708.42" width="0.86" height="2.3"/><rect class="cls-23" x="376.1" y="708.42" width="0.86" height="3.81"/><rect class="cls-23" x="382.13" y="708.42" width="0.86" height="2.3"/><rect class="cls-23" x="388.15" y="708.42" width="0.86" height="3.81"/><rect class="cls-23" x="394.18" y="708.42" width="0.86" height="2.3"/><rect class="cls-23" x="400.21" y="708.42" width="0.86" height="3.81"/><rect class="cls-23" x="406.23" y="708.42" width="0.86" height="2.3"/><rect class="cls-23" x="412.26" y="708.42" width="0.86" height="3.81"/><rect class="cls-23" x="418.29" y="708.42" width="0.86" height="2.3"/><rect class="cls-23" x="424.31" y="708.42" width="0.86" height="3.81"/><rect class="cls-23" x="430.34" y="708.42" width="0.86" height="2.3"/><rect class="cls-23" x="436.36" y="708.42" width="0.86" height="3.81"/><rect class="cls-23" x="442.39" y="708.42" width="0.86" height="2.3"/><rect class="cls-23" x="448.42" y="708.42" width="0.86" height="3.81"/><rect class="cls-23" x="454.44" y="708.42" width="0.86" height="2.3"/><rect class="cls-23" x="460.47" y="708.42" width="0.86" height="3.81"/><rect class="cls-23" x="466.49" y="708.42" width="0.86" height="2.3"/><rect class="cls-23" x="472.52" y="708.42" width="0.86" height="3.81"/><rect class="cls-23" x="478.55" y="708.42" width="0.86" height="2.3"/><rect class="cls-23" x="484.57" y="708.42" width="0.86" height="3.81"/><rect class="cls-23" x="490.6" y="708.42" width="0.86" height="2.3"/><rect class="cls-23" x="496.62" y="708.42" width="0.86" height="3.81"/><rect class="cls-23" x="502.65" y="708.42" width="0.86" height="2.3"/><rect class="cls-23" x="508.68" y="708.42" width="0.86" height="3.81"/><rect class="cls-23" x="508.68" y="723.1" width="0.86" height="2.3"/><rect class="cls-23" x="502.65" y="721.59" width="0.86" height="3.81"/><rect class="cls-23" x="496.62" y="723.1" width="0.86" height="2.3"/><rect class="cls-23" x="490.6" y="721.59" width="0.86" height="3.81"/><rect class="cls-23" x="484.57" y="723.1" width="0.86" height="2.3"/><rect class="cls-23" x="478.55" y="721.59" width="0.86" height="3.81"/><rect class="cls-23" x="472.52" y="723.1" width="0.86" height="2.3"/><rect class="cls-23" x="466.49" y="721.59" width="0.86" height="3.81"/><rect class="cls-23" x="460.47" y="723.1" width="0.86" height="2.3"/><rect class="cls-23" x="454.44" y="721.59" width="0.86" height="3.81"/><rect class="cls-23" x="448.42" y="723.1" width="0.86" height="2.3"/><rect class="cls-23" x="442.39" y="721.59" width="0.86" height="3.81"/><rect class="cls-23" x="436.36" y="723.1" width="0.86" height="2.3"/><rect class="cls-23" x="430.34" y="721.59" width="0.86" height="3.81"/><rect class="cls-23" x="424.31" y="723.1" width="0.86" height="2.3"/><rect class="cls-23" x="418.29" y="721.59" width="0.86" height="3.81"/><rect class="cls-23" x="412.26" y="723.1" width="0.86" height="2.3"/><rect class="cls-23" x="406.23" y="721.59" width="0.86" height="3.81"/><rect class="cls-23" x="400.21" y="723.1" width="0.86" height="2.3"/><rect class="cls-23" x="394.18" y="721.59" width="0.86" height="3.81"/><rect class="cls-23" x="388.15" y="723.1" width="0.86" height="2.3"/><rect class="cls-23" x="382.13" y="721.59" width="0.86" height="3.81"/><rect class="cls-23" x="376.1" y="723.1" width="0.86" height="2.3"/><rect class="cls-23" x="370.08" y="721.59" width="0.86" height="3.81"/><rect class="cls-25" x="366.86" y="719.43" width="145.91" height="0.36"/><rect class="cls-25" x="366.86" y="716.73" width="145.91" height="0.36"/><rect class="cls-25" x="366.86" y="714.02" width="145.91" height="0.36"/><circle class="cls-27" cx="491.04" cy="771.18" r="38.46"/><circle class="cls-28" cx="491.04" cy="771.18" r="36.6"/><path class="cls-27" d="M505.85,735.48H477.19q-1.59.64-3.1,1.41H509Q507.44,736.12,505.85,735.48Z" transform="translate(-0.48)"/><path class="cls-27" d="M468.7,740.22h45.64q-1-.73-2-1.41H470.74Q469.69,739.49,468.7,740.22Z" transform="translate(-0.48)"/><path class="cls-27" d="M464.77,743.55h53.51q-.75-.72-1.53-1.41H466.3Q465.51,742.83,464.77,743.55Z" transform="translate(-0.48)"/><path class="cls-27" d="M461.71,746.89h59.63q-.59-.72-1.21-1.41H462.91Q462.29,746.17,461.71,746.89Z" transform="translate(-0.48)"/><path class="cls-27" d="M459.27,750.22h64.5q-.47-.71-1-1.41H460.23Q459.74,749.51,459.27,750.22Z" transform="translate(-0.48)"/><path class="cls-27" d="M457.33,753.55h68.38q-.37-.71-.77-1.41H458.1C457.83,752.61,457.58,753.08,457.33,753.55Z" transform="translate(-0.48)"/><path class="cls-27" d="M455.81,756.89h71.42c-.19-.47-.39-.94-.6-1.41H456.41C456.2,755.94,456,756.41,455.81,756.89Z" transform="translate(-0.48)"/><path class="cls-27" d="M454.65,760.22h73.74c-.14-.47-.29-.94-.45-1.41H455.1C454.94,759.28,454.79,759.75,454.65,760.22Z" transform="translate(-0.48)"/><path class="cls-27" d="M453.82,763.55h75.4q-.14-.71-.31-1.41H454.13C454,762.61,453.92,763.08,453.82,763.55Z" transform="translate(-0.48)"/><path class="cls-27" d="M453.3,766.88h76.43c-.05-.47-.11-.94-.18-1.41H453.49Q453.38,766.18,453.3,766.88Z" transform="translate(-0.48)"/><path class="cls-27" d="M453.07,770.22H530c0-.47,0-.94-.06-1.41H453.14C453.11,769.28,453.09,769.74,453.07,770.22Z" transform="translate(-0.48)"/><path class="cls-27" d="M453.14,773.55H529.9c0-.47.05-.94.06-1.41H453.07C453.09,772.61,453.11,773.08,453.14,773.55Z" transform="translate(-0.48)"/><path class="cls-27" d="M453.49,776.88h76.07c.07-.47.13-.94.18-1.41H453.3Q453.38,776.18,453.49,776.88Z" transform="translate(-0.48)"/><path class="cls-27" d="M454.13,780.21h74.77q.17-.7.31-1.41h-75.4C453.92,779.28,454,779.75,454.13,780.21Z" transform="translate(-0.48)"/><path class="cls-27" d="M455.1,783.55h72.85c.16-.47.31-.93.45-1.41H454.65C454.79,782.61,454.94,783.08,455.1,783.55Z" transform="translate(-0.48)"/><path class="cls-27" d="M456.41,786.88h70.23q.31-.7.6-1.41H455.81Q456.09,786.18,456.41,786.88Z" transform="translate(-0.48)"/><path class="cls-27" d="M458.1,790.21h66.85q.4-.69.77-1.41H457.33C457.58,789.28,457.83,789.75,458.1,790.21Z" transform="translate(-0.48)"/><path class="cls-27" d="M460.23,793.55h62.58q.49-.69,1-1.41h-64.5Q459.74,792.85,460.23,793.55Z" transform="translate(-0.48)"/><path class="cls-27" d="M462.91,796.88h57.22q.62-.69,1.21-1.41H461.71Q462.29,796.19,462.91,796.88Z" transform="translate(-0.48)"/><path class="cls-27" d="M466.3,800.21h50.45c.52-.45,1-.93,1.53-1.41H464.77C465.26,799.28,465.77,799.76,466.3,800.21Z" transform="translate(-0.48)"/><path class="cls-27" d="M470.74,803.54H512.3q1-.67,2-1.41H468.7Q469.7,802.87,470.74,803.54Z" transform="translate(-0.48)"/><path class="cls-27" d="M477.19,806.87h28.66q1.59-.64,3.1-1.41H474.09Q475.6,806.24,477.19,806.87Z" transform="translate(-0.48)"/><rect class="cls-27" x="370.51" y="787.7" width="73.94" height="18.02"/><rect class="cls-28" x="372.36" y="802.72" width="70.23" height="1.22"/><rect class="cls-28" x="372.36" y="800.07" width="70.23" height="1.22"/><rect class="cls-28" x="372.36" y="797.41" width="70.23" height="1.22"/><rect class="cls-23" x="372.36" y="789.48" width="70.23" height="6.48"/><path class="cls-27" d="M444.92,784.54a1.19,1.19,0,0,1-1.26,1.1H372.25a1.19,1.19,0,0,1-1.26-1.1V737.73a1.19,1.19,0,0,1,1.26-1.1h71.41a1.19,1.19,0,0,1,1.26,1.1Z" transform="translate(-0.48)"/><rect class="cls-26" x="372.36" y="738.86" width="70.23" height="44.11"/><rect class="cls-28" x="375.98" y="743.74" width="62.99" height="39.27"/><path class="cls-23" d="M431.95,756.31a6.75,6.75,0,0,1-6.46,7H390.43a6.75,6.75,0,0,1-6.46-7h0a6.75,6.75,0,0,1,6.46-7h35.06a6.75,6.75,0,0,1,6.46,7Z" transform="translate(-0.48)"/><path class="cls-27" d="M391.75,750.31a6,6,0,1,0,6,6A6,6,0,0,0,391.75,750.31Zm0,10.43a4.43,4.43,0,1,1,4.43-4.43A4.43,4.43,0,0,1,391.75,760.74Z" transform="translate(-0.48)"/><path class="cls-27" d="M424.16,750.31a6,6,0,1,0,6,6A6,6,0,0,0,424.16,750.31Zm0,10.43a4.43,4.43,0,1,1,4.43-4.43A4.43,4.43,0,0,1,424.16,760.74Z" transform="translate(-0.48)"/><rect class="cls-27" x="370.5" y="769.01" width="73.94" height="15.21"/><rect class="cls-23" x="374.48" y="773.3" width="65.99" height="1.11"/><rect class="cls-23" x="374.48" y="779.54" width="65.99" height="1.11"/><rect class="cls-29" y="299.96" width="300" height="300.01"/><path class="cls-30" d="M225.94,406.1c-.71-6-9.07-7.6-13.37-9.63s-12.75-2.42-16.38-2.68-5.31-.13-7.7,1.34-1.2,3.33-.27,4.49a11.18,11.18,0,0,1,1.41,3.83l2.79-.82a18.41,18.41,0,0,1-.75-2.62,1.73,1.73,0,0,1,1.42-2.38,44.09,44.09,0,0,1,5.18.39c1.42.3,4.43,3,7.26,5s3.32,2.94,4,4.85-1.15,3.79-3.19,5.47-5.62,1.43-5.62,1.43h-2.94v2.5h3.56a24,24,0,0,0,2.7-.14v3.16s-.49.13,9.69-.91S226.65,412.1,225.94,406.1Zm-6.11,7.9c-2.12,2.68-8.06,2.25-8.06,2.25l-5.31.36c2.08-.69,3.34-2,4.87-3.93,2.48-3.18.89-7.79.13-9.47s-5.67-4-5.67-4l1.24-.35c1.24-.35,5.44,1.73,11.46,4.28S222,411.33,219.83,414Z" transform="translate(-0.48)"/><rect class="cls-31" x="210.57" y="437.19" width="0.7" height="33.7" transform="translate(-119.16 77.2) rotate(-16.26)"/><rect class="cls-31" x="209.01" y="437.8" width="0.7" height="33.7" transform="translate(-182.71 142.88) rotate(-26.75)"/><rect class="cls-31" x="182.19" y="478.05" width="33.7" height="0.7" transform="translate(-126.55 74.93) rotate(-16.27)"/><rect class="cls-31" x="182.81" y="479.61" width="33.7" height="0.7" transform="translate(-195.2 141.3) rotate(-26.76)"/><rect class="cls-31" x="223.06" y="473.42" width="0.7" height="33.7" transform="translate(-128.64 82.01) rotate(-16.23)"/><rect class="cls-31" x="224.61" y="472.81" width="0.7" height="33.7" transform="translate(-197.16 154.11) rotate(-26.81)"/><rect class="cls-31" x="218.43" y="465.56" width="33.7" height="0.7" transform="translate(-121.61 84.59) rotate(-16.27)"/><rect class="cls-31" x="217.81" y="464.01" width="33.7" height="0.7" transform="translate(-184.53 155.52) rotate(-26.78)"/><rect class="cls-31" x="208.7" y="454.58" width="33.7" height="0.7" transform="translate(-282.24 433.23) rotate(-61.18)"/><rect class="cls-31" x="207.17" y="453.91" width="33.7" height="0.7" transform="matrix(0.31, -0.95, 0.95, 0.31, -277.91, 525.62)"/><rect class="cls-31" x="199.59" y="446.91" width="0.7" height="33.7" transform="translate(-303.31 415.99) rotate(-61.25)"/><rect class="cls-31" x="198.92" y="448.45" width="0.7" height="33.7" transform="translate(-305.53 508.64) rotate(-71.73)"/><polygon class="cls-31" points="216.69 474.77 216.07 474.44 199.88 504 200.49 504.33 216.69 474.77"/><rect class="cls-31" x="193.45" y="489.7" width="33.7" height="0.7" transform="translate(-321.48 535.85) rotate(-71.7)"/><rect class="cls-31" x="234.04" y="463.7" width="0.7" height="33.7" transform="translate(-300.14 454.75) rotate(-61.23)"/><rect class="cls-31" x="234.71" y="462.17" width="0.7" height="33.7" transform="translate(-293.94 552.4) rotate(-71.77)"/><rect class="cls-31" x="201.15" y="452.66" width="33.7" height="0.7" transform="translate(-253.47 628.84) rotate(-84.77)"/><rect class="cls-31" x="215.98" y="436.16" width="0.7" height="33.7" transform="translate(-40.87 21.6) rotate(-5.23)"/><rect class="cls-31" x="197.67" y="454.47" width="0.7" height="33.7" transform="translate(-289.96 625.3) rotate(-84.74)"/><rect class="cls-31" x="181.16" y="472.65" width="33.7" height="0.7" transform="translate(-43.05 20.17) rotate(-5.27)"/><rect class="cls-31" x="199.47" y="490.96" width="33.7" height="0.7" transform="translate(-293.3 661.46) rotate(-84.72)"/><rect class="cls-31" x="217.65" y="474.45" width="0.7" height="33.7" transform="translate(-44.82 22.17) rotate(-5.29)"/><rect class="cls-31" x="235.96" y="456.14" width="0.7" height="33.7" transform="translate(-256.87 664.86) rotate(-84.73)"/><rect class="cls-31" x="219.46" y="470.97" width="33.7" height="0.7" transform="translate(-42.74 23.67) rotate(-5.27)"/><rect class="cls-31" x="214.44" y="458.86" width="33.7" height="0.7" transform="translate(-240.42 253.51) rotate(-39.68)"/><rect class="cls-31" x="213.26" y="457.68" width="33.7" height="0.7" transform="translate(-269.62 341.86) rotate(-50.23)"/><rect class="cls-31" x="203.87" y="441.18" width="0.7" height="33.7" transform="translate(-246.12 236.38) rotate(-39.74)"/><rect class="cls-31" x="202.68" y="442.36" width="0.7" height="33.7" transform="translate(-280.37 321.8) rotate(-50.26)"/><rect class="cls-31" x="186.18" y="484.76" width="33.7" height="0.7" transform="translate(-263.37 241.23) rotate(-39.66)"/><rect class="cls-31" x="187.36" y="485.94" width="33.7" height="0.7" transform="translate(-300.72 332.33) rotate(-50.25)"/><rect class="cls-31" x="229.76" y="469.44" width="0.7" height="33.7" transform="translate(-258.18 259.41) rotate(-39.73)"/><rect class="cls-31" x="230.94" y="468.25" width="0.7" height="33.7" transform="translate(-290.05 352.7) rotate(-50.25)"/><path class="cls-32" d="M173.33,472.16a43.83,43.83,0,1,0,43.83-43.83A43.83,43.83,0,0,0,173.33,472.16Zm7.83,0a36,36,0,1,1,36,36A36,36,0,0,1,181.16,472.16Z" transform="translate(-0.48)"/><path class="cls-33" d="M176.66,472.16a40.5,40.5,0,1,0,40.5-40.51A40.5,40.5,0,0,0,176.66,472.16Zm4.93,0a35.58,35.58,0,1,1,35.58,35.58A35.58,35.58,0,0,1,181.58,472.16Z" transform="translate(-0.48)"/><path class="cls-34" d="M179.72,472.16a37.44,37.44,0,1,0,37.45-37.45A37.45,37.45,0,0,0,179.72,472.16Zm2.1,0a35.35,35.35,0,1,1,35.35,35.35A35.35,35.35,0,0,1,181.81,472.16Z" transform="translate(-0.48)"/><rect class="cls-31" x="67.79" y="452.66" width="33.7" height="0.7" transform="translate(-374.68 496.03) rotate(-84.77)"/><rect class="cls-31" x="82.62" y="436.16" width="0.7" height="33.7" transform="matrix(1, -0.09, 0.09, 1, -41.42, 9.44)"/><rect class="cls-31" x="64.31" y="454.47" width="0.7" height="33.7" transform="translate(-411.08 492.64) rotate(-84.76)"/><rect class="cls-31" x="47.81" y="472.65" width="33.7" height="0.7" transform="translate(-43.48 7.9) rotate(-5.25)"/><rect class="cls-31" x="66.12" y="490.96" width="33.7" height="0.7" transform="translate(-414.37 528.68) rotate(-84.72)"/><rect class="cls-31" x="84.29" y="474.45" width="0.7" height="33.7" transform="translate(-45.37 9.88) rotate(-5.28)"/><rect class="cls-31" x="102.6" y="456.14" width="0.7" height="33.7" transform="translate(-377.98 532.07) rotate(-84.73)"/><rect class="cls-31" x="86.1" y="470.97" width="33.7" height="0.7" transform="translate(-43.3 11.44) rotate(-5.27)"/><rect class="cls-31" x="81.08" y="458.86" width="33.7" height="0.7" transform="translate(-271.05 168.23) rotate(-39.67)"/><rect class="cls-31" x="79.9" y="457.68" width="33.7" height="0.7" transform="translate(-317.68 239.41) rotate(-50.23)"/><rect class="cls-31" x="70.51" y="441.18" width="0.7" height="33.7" transform="translate(-277.01 151.22) rotate(-39.76)"/><rect class="cls-31" x="69.33" y="442.36" width="0.7" height="33.7" transform="translate(-328.48 219.25) rotate(-50.26)"/><rect class="cls-31" x="52.82" y="484.76" width="33.7" height="0.7" transform="translate(-294.24 156.32) rotate(-39.69)"/><rect class="cls-31" x="54.01" y="485.94" width="33.7" height="0.7" transform="translate(-348.73 229.69) rotate(-50.23)"/><rect class="cls-31" x="96.4" y="469.44" width="0.7" height="33.7" transform="translate(-288.95 174.13) rotate(-39.73)"/><rect class="cls-31" x="97.59" y="468.25" width="0.7" height="33.7" transform="translate(-338.15 250.22) rotate(-50.25)"/><rect class="cls-31" x="77.21" y="437.19" width="0.7" height="33.7" transform="translate(-124.5 39.87) rotate(-16.26)"/><rect class="cls-31" x="75.66" y="437.8" width="0.7" height="33.7" transform="translate(-197.08 82.93) rotate(-26.76)"/><rect class="cls-31" x="48.84" y="478.05" width="33.7" height="0.7" transform="translate(-132.01 37.62) rotate(-16.29)"/><rect class="cls-31" x="49.45" y="479.61" width="33.7" height="0.7" transform="translate(-209.54 81.29) rotate(-26.77)"/><rect class="cls-31" x="89.7" y="473.42" width="0.7" height="33.7" transform="translate(-133.98 44.73) rotate(-16.24)"/><rect class="cls-31" x="91.26" y="472.81" width="0.7" height="33.7" transform="translate(-211.53 93.98) rotate(-26.82)"/><rect class="cls-31" x="85.07" y="465.56" width="33.7" height="0.7" transform="translate(-126.84 47.16) rotate(-16.26)"/><rect class="cls-31" x="84.46" y="464.01" width="33.7" height="0.7" transform="translate(-198.73 95.37) rotate(-26.76)"/><rect class="cls-31" x="75.35" y="454.58" width="33.7" height="0.7" transform="translate(-351.3 316.36) rotate(-61.17)"/><rect class="cls-31" x="73.81" y="453.91" width="33.7" height="0.7" transform="translate(-369.73 398.96) rotate(-71.86)"/><rect class="cls-31" x="66.23" y="446.91" width="0.7" height="33.7" transform="translate(-372.5 299.02) rotate(-61.24)"/><rect class="cls-31" x="65.56" y="448.45" width="0.7" height="33.7" transform="translate(-397.13 382.32) rotate(-71.77)"/><polygon class="cls-31" points="83.33 474.77 82.72 474.44 66.52 504 67.14 504.33 83.33 474.77"/><polygon class="cls-31" points="81.4 473.94 82.07 474.16 71.52 506.17 70.86 505.95 81.4 473.94"/><rect class="cls-31" x="100.68" y="463.7" width="0.7" height="33.7" transform="translate(-369.34 337.91) rotate(-61.24)"/><rect class="cls-31" x="101.35" y="462.17" width="0.7" height="33.7" transform="translate(-385.58 425.81) rotate(-71.78)"/><path class="cls-32" d="M40,472.16a43.83,43.83,0,1,0,43.83-43.83A43.83,43.83,0,0,0,40,472.16Zm7.83,0a36,36,0,1,1,36,36A36,36,0,0,1,47.81,472.16Z" transform="translate(-0.48)"/><path class="cls-33" d="M43.3,472.16a40.5,40.5,0,1,0,40.5-40.51A40.5,40.5,0,0,0,43.3,472.16Zm4.93,0a35.58,35.58,0,1,1,35.58,35.58A35.58,35.58,0,0,1,48.23,472.16Z" transform="translate(-0.48)"/><path class="cls-34" d="M46.36,472.16a37.44,37.44,0,1,0,37.45-37.45A37.45,37.45,0,0,0,46.36,472.16Zm2.1,0a35.35,35.35,0,1,1,35.35,35.35A35.35,35.35,0,0,1,48.46,472.16Z" transform="translate(-0.48)"/><rect class="cls-35" x="116.82" y="405.9" width="75.95" height="4.78"/><rect class="cls-35" x="125.55" y="446.1" width="82.29" height="5.71" transform="translate(-274.89 262.48) rotate(-46.71)"/><path class="cls-35" d="M215.42,470.48s-5.8-4.89-10.46-14.9-9.32-22.4-9.55-25.36.45-3.87.45-3.87l2.73-.76a31.15,31.15,0,0,1,4.21,10.32c1.59,6.71,5.46,19.22,6.14,20.69s6.48,12.45,7.62,12.82l1,1.05Z" transform="translate(-0.48)"/><rect class="cls-35" x="191.66" y="400.82" width="3.93" height="25.22" transform="translate(-103.81 66.68) rotate(-15.48)"/><path class="cls-35" d="M199.86,425.11a.67.67,0,0,1-.52.79l-3.83,1a.67.67,0,0,1-.85-.42h0a.67.67,0,0,1,.52-.79l3.83-1a.67.67,0,0,1,.85.42Z" transform="translate(-0.48)"/><rect class="cls-35" x="126.01" y="396.65" width="3.18" height="86.62" transform="translate(-116.26 51.87) rotate(-15.92)"/><rect class="cls-35" x="63.1" y="438.23" width="75.3" height="3" transform="translate(-336.78 327.94) rotate(-62.75)"/><rect class="cls-35" x="110.4" y="448.31" width="1.88" height="56.23" transform="translate(-376.82 515.86) rotate(-81.47)"/><circle class="cls-19" cx="216.68" cy="472.16" r="5.06"/><circle class="cls-33" cx="216.68" cy="472.16" r="3.79"/><rect class="cls-36" x="126.64" y="491.29" width="20.73" height="2.45" transform="translate(-372.63 538.38) rotate(-79.6)"/><path class="cls-37" d="M129.63,503.09a.22.22,0,0,0,.24.19h7.41a.22.22,0,0,0,.24-.19v-1.33a.22.22,0,0,0-.24-.19h-7.41a.22.22,0,0,0-.24.19Z" transform="translate(-0.48)"/><rect class="cls-38" x="83.81" y="466.77" width="54.58" height="0.92" transform="translate(-6.66 1.51) rotate(-0.76)"/><rect class="cls-38" x="109.11" y="458.29" width="0.72" height="54.68" transform="translate(-386.04 433.03) rotate(-71.23)"/><path class="cls-39" d="M139,466.4a14.47,14.47,0,1,0,14.47,14.47A14.47,14.47,0,0,0,139,466.4Zm1.37,2a.42.42,0,0,1,.49-.38,13.28,13.28,0,0,1,9.66,6.88.42.42,0,0,1-.2.58l-10.44,4.77a.42.42,0,0,1-.6-.43Zm-12.89,6.5a13.28,13.28,0,0,1,9.66-6.88.42.42,0,0,1,.49.38l1.09,11.43a.42.42,0,0,1-.6.43l-10.44-4.77a.42.42,0,0,1-.2-.58Zm2.08,14.55a.42.42,0,0,1-.3-.15,13.28,13.28,0,0,1-2.85-11.51.42.42,0,0,1,.53-.31l11,3.19a.42.42,0,0,1,.18.71l-8.27,8A.42.42,0,0,1,129.53,489.48ZM145.12,492a.42.42,0,0,1-.22.26,13.28,13.28,0,0,1-11.86,0,.42.42,0,0,1-.18-.59l5.74-9.94a.42.42,0,0,1,.73,0l5.74,9.94A.42.42,0,0,1,145.12,492Zm3.6-2.69a.42.42,0,0,1-.62,0l-8.28-8a.42.42,0,0,1,.18-.71l11-3.19a.42.42,0,0,1,.53.31,13.28,13.28,0,0,1-2.85,11.51Z" transform="translate(-0.48)"/><path class="cls-19" d="M139,466.4a14.47,14.47,0,1,0,14.47,14.47A14.47,14.47,0,0,0,139,466.4Zm0,28.05a13.58,13.58,0,1,1,13.58-13.58A13.58,13.58,0,0,1,139,494.45Z" transform="translate(-0.48)"/><circle class="cls-19" cx="83.32" cy="472.16" r="5.06"/><circle class="cls-33" cx="83.32" cy="472.16" r="3.79"/><rect class="cls-36" x="130.73" y="468.91" width="20.73" height="2.45" transform="translate(-347.23 524.42) rotate(-79.64)"/><path class="cls-37" d="M140.38,460a.22.22,0,0,0,.24.19H148a.22.22,0,0,0,.24-.19v-1.33a.22.22,0,0,0-.24-.19h-7.41a.22.22,0,0,0-.24.19Z" transform="translate(-0.48)"/><circle class="cls-37" cx="138.49" cy="480.87" r="2.62"/><circle class="cls-40" cx="138.49" cy="480.87" r="1.85"/><path class="cls-7" d="M117.56,398.54a.35.35,0,0,1-.23.44l-2.62.75a.35.35,0,0,1-.43-.25l-2.18-7.65a.35.35,0,0,1,.23-.44l2.62-.75a.35.35,0,0,1,.43.25Z" transform="translate(-0.48)"/><path class="cls-30" d="M108.32,393.21S102,389,100,387.5s-2.86-4.78,3.24-3.07,9.93,2.86,13.6,3.5,12.24,1.45,15.35,3.75,4.6,5.16-1.15,3.88-5.33-2.35-11.81-2.64-6.82.55-8.4.55S110.63,394,108.32,393.21Z" transform="translate(-0.48)"/><rect class="cls-41" y="599.97" width="300" height="300.01"/><path class="cls-2" d="M235.61,828a7.9,7.9,0,0,1-8,7.82H73.33a7.9,7.9,0,0,1-8-7.82V729.47a7.9,7.9,0,0,1,8-7.82H227.64a7.9,7.9,0,0,1,8,7.82Z" transform="translate(-0.48)"/><path class="cls-24" d="M227.64,721.65H73.33a7.9,7.9,0,0,0-8,7.82V828a7.9,7.9,0,0,0,8,7.82H227.64a7.9,7.9,0,0,0,8-7.82V729.47A7.9,7.9,0,0,0,227.64,721.65Zm4.9,103.9a7.57,7.57,0,0,1-7.69,7.44H76.11a7.56,7.56,0,0,1-7.69-7.44V731.88a7.56,7.56,0,0,1,7.69-7.44H224.85a7.57,7.57,0,0,1,7.69,7.44Z" transform="translate(-0.48)"/><path class="cls-12" d="M199.49,761.73a32.39,32.39,0,0,0-17.77-25.07,31.26,31.26,0,0,0-13.81-3.2H106.67a31.26,31.26,0,0,0-13.81,3.2,32.39,32.39,0,0,0-17.77,25.07v34a32.39,32.39,0,0,0,17.77,25.07,31.26,31.26,0,0,0,13.81,3.2h61.24a31.27,31.27,0,0,0,13.81-3.2,32.39,32.39,0,0,0,17.77-25.07,33.27,33.27,0,0,0,.26-4.12V765.86A33.26,33.26,0,0,0,199.49,761.73Z" transform="translate(-0.48)"/><path class="cls-42" d="M94.07,819V738.38a31.1,31.1,0,0,0-17.34,24V795A31.1,31.1,0,0,0,94.07,819Z" transform="translate(-0.48)"/><path class="cls-28" d="M180.78,738.38V819a31.1,31.1,0,0,0,17.34-24V762.43A31.1,31.1,0,0,0,180.78,738.38Z" transform="translate(-0.48)"/><path class="cls-43" d="M107.54,735.31a30.94,30.94,0,0,0-13.48,3.07V819a31,31,0,0,0,13.48,3.07h3.87V735.31Z" transform="translate(-0.48)"/><rect class="cls-44" x="110.92" y="735.31" width="17.34" height="86.79"/><rect class="cls-45" x="128.27" y="735.31" width="17.34" height="86.79"/><rect class="cls-46" x="145.61" y="735.31" width="17.34" height="86.79"/><path class="cls-47" d="M163.44,735.31v86.79h3.87A31,31,0,0,0,180.78,819V738.38a30.94,30.94,0,0,0-13.48-3.07Z" transform="translate(-0.48)"/><path class="cls-24" d="M180.78,738.38h0a30.94,30.94,0,0,0-13.48-3.07H107.54a30.94,30.94,0,0,0-13.48,3.07h0a31.1,31.1,0,0,0-17.34,24V795a31.1,31.1,0,0,0,17.34,24h0a31,31,0,0,0,13.48,3.07H167.3A31,31,0,0,0,180.78,819h0a31.1,31.1,0,0,0,17.34-24V762.43A31.1,31.1,0,0,0,180.78,738.38Zm12.88,55A28.06,28.06,0,0,1,177.59,815h0a29.37,29.37,0,0,1-12.49,2.76H109.74A29.37,29.37,0,0,1,97.25,815h0a28.06,28.06,0,0,1-16.07-21.64V764.05a28.06,28.06,0,0,1,16.07-21.64h0a29.37,29.37,0,0,1,12.49-2.76h55.37a29.37,29.37,0,0,1,12.49,2.76h0a28.06,28.06,0,0,1,16.07,21.64Z" transform="translate(-0.48)"/><ellipse class="cls-48" cx="216.16" cy="752.08" rx="7.74" ry="7.46" transform="translate(-469 373.18) rotate(-45)"/><rect class="cls-23" x="215.1" y="748.35" width="2.13" height="7.47" transform="translate(-469.18 373.52) rotate(-45.03)"/><path class="cls-49" d="M221.63,746.61a7.74,7.74,0,1,0-.2,10.75A7.6,7.6,0,0,0,221.63,746.61Zm-1.13,9.81a6.14,6.14,0,1,1,.16-8.83A6.25,6.25,0,0,1,220.5,756.41Z" transform="translate(-0.48)"/><ellipse class="cls-48" cx="216.16" cy="775.26" rx="7.46" ry="7.74" transform="translate(-485.38 379.95) rotate(-45)"/><rect class="cls-23" x="212.43" y="774.2" width="7.47" height="2.13" transform="translate(-485.58 380.29) rotate(-45.03)"/><path class="cls-49" d="M221.64,780.74a7.74,7.74,0,1,0-10.75-.2A7.6,7.6,0,0,0,221.64,780.74Zm-9.81-1.13a6.14,6.14,0,1,1,8.83.16A6.25,6.25,0,0,1,211.83,779.6Z" transform="translate(-0.48)"/><rect class="cls-48" x="205.97" y="796.41" width="19.42" height="4.14"/><path class="cls-49" d="M206.45,796.41v4.14h19.42v-4.14Zm18.67,3.31H207.2v-2.48h17.92Z" transform="translate(-0.48)"/><rect class="cls-48" x="205.97" y="790.21" width="19.42" height="4.14"/><path class="cls-49" d="M206.45,790.21v4.14h19.42v-4.14Zm18.67,3.31H207.2V791h17.92Z" transform="translate(-0.48)"/><rect class="cls-48" x="205.97" y="802.61" width="19.42" height="4.14"/><path class="cls-49" d="M206.45,802.61v4.14h19.42v-4.14Zm18.67,3.31H207.2v-2.48h17.92Z" transform="translate(-0.48)"/><rect class="cls-48" x="205.97" y="808.81" width="19.42" height="4.14"/><path class="cls-49" d="M206.45,808.81v4.14h19.42v-4.14Zm18.67,3.31H207.2v-2.48h17.92Z" transform="translate(-0.48)"/><polygon class="cls-50" points="88.74 671.67 110.15 691.64 131.57 711.61 130.12 713.06 128.68 714.5 108.71 693.09 88.74 671.67"/><polygon class="cls-2" points="92.24 675.17 111.2 693.48 130.17 711.78 129.51 712.44 128.85 713.1 110.55 694.14 92.24 675.17"/><circle class="cls-50" cx="91.55" cy="674" r="3.52" transform="translate(-450.27 262.15) rotate(-45)"/><circle class="cls-2" cx="91.55" cy="674" r="2.46" transform="translate(-450.27 262.16) rotate(-45)"/><polygon class="cls-50" points="178.15 665.38 155.04 689.94 131.92 714.5 130.48 713.06 129.03 711.61 153.59 688.49 178.15 665.38"/><polygon class="cls-2" points="174.12 669.41 152.98 691.21 131.84 713.01 131.18 712.35 130.53 711.69 152.32 690.55 174.12 669.41"/><circle class="cls-50" cx="176.31" cy="667.7" r="3.52" transform="translate(-420.98 320.24) rotate(-45)"/><circle class="cls-2" cx="176.31" cy="667.7" r="2.46" transform="translate(-420.98 320.23) rotate(-45)"/><path class="cls-2" d="M154.77,722.92h0c0-6.57-10.74-11.89-24-11.89s-24,5.33-24,11.89h48Z" transform="translate(-0.48)"/><path class="cls-24" d="M130.79,711c-13.24,0-24,5.33-24,11.89h48C154.77,716.35,144,711,130.79,711Zm18.58,10.21H112.21c0-4.7,8.32-8.52,18.58-8.52s18.58,3.81,18.58,8.52Z" transform="translate(-0.48)"/><rect class="cls-51" x="300" width="300" height="300.01"/><path class="cls-52" d="M384.71,78.56H510.3l11.62,11.83V215.78a5.67,5.67,0,0,1-5.67,5.67H384.71a5.67,5.67,0,0,1-5.67-5.67V84.23A5.67,5.67,0,0,1,384.71,78.56Z" transform="translate(-0.48)"/><rect class="cls-53" x="385.49" y="207.25" width="6.84" height="6.53" rx="0.93" ry="0.93"/><rect class="cls-53" x="507.67" y="207.25" width="6.83" height="6.53" rx="0.93" ry="0.93"/><path class="cls-54" d="M403.89,78.91v36.58c0,2,2,3.61,4.53,3.61h84.12c2.5,0,4.53-1.61,4.53-3.61V78.91Zm1.16.5h90.86v35.67c0,1.94-2,3.52-4.42,3.52h-82c-2.44,0-4.42-1.57-4.42-3.52Z" transform="translate(-0.48)"/><path class="cls-55" d="M420.89,78.56v37.2a3.69,3.69,0,0,0,3.7,3.67h68.77a3.69,3.69,0,0,0,3.7-3.67V78.56Zm50.94,4.81A1.35,1.35,0,0,1,473.15,82H485.7A1.35,1.35,0,0,1,487,83.38v31.24A1.35,1.35,0,0,1,485.7,116H473.15a1.34,1.34,0,0,1-1.31-1.38Z" transform="translate(-0.48)"/><path class="cls-53" d="M502.55,221.45a3.1,3.1,0,0,0,.09-.75v-84a3.09,3.09,0,0,0-3.09-3.09H401.41a3.09,3.09,0,0,0-3.09,3.09v84a3.1,3.1,0,0,0,.09.75Z" transform="translate(-0.48)"/><path class="cls-56" d="M398.32,206.24V220a11.09,11.09,0,0,0,.09,1.43H502.55a11,11,0,0,0,.09-1.43V206.24Z" transform="translate(-0.48)"/><rect class="cls-57" x="411.21" y="147.08" width="78.18" height="1.49"/><rect class="cls-57" x="411.21" y="162.86" width="78.18" height="1.49"/><rect class="cls-57" x="411.21" y="178.64" width="78.18" height="1.49"/><rect class="cls-57" x="411.21" y="194.41" width="78.18" height="1.49"/><rect class="cls-58" x="600" y="299.96" width="300" height="300.01"/><circle class="cls-59" cx="750" cy="449.97" r="93.02"/><circle class="cls-60" cx="750" cy="449.97" r="90.33"/><circle class="cls-61" cx="750" cy="449.97" r="37.42"/><path class="cls-6" d="M750.48,415.35A34.62,34.62,0,1,0,785.1,450,34.62,34.62,0,0,0,750.48,415.35Zm0,67A32.37,32.37,0,1,1,782.85,450,32.37,32.37,0,0,1,750.48,482.34Z" transform="translate(-0.48)"/><circle class="cls-6" cx="750" cy="449.97" r="5.06"/><rect class="cls-29" x="600" y="599.98" width="300" height="300.01"/><rect class="cls-62" x="778.79" y="700" width="67.56" height="58.58" rx="3.64" ry="3.64"/><rect class="cls-62" x="675.39" y="719.13" width="135.4" height="71.71"/><rect class="cls-62" x="670.07" y="789.6" width="146.03" height="20.38"/><rect class="cls-63" x="674.11" y="795.36" width="5.12" height="8.86"/><rect class="cls-63" x="682.41" y="795.36" width="5.12" height="8.86"/><rect class="cls-63" x="690.71" y="795.36" width="5.12" height="8.86"/><rect class="cls-63" x="699.01" y="795.36" width="5.12" height="8.86"/><rect class="cls-63" x="707.32" y="795.36" width="5.12" height="8.86"/><rect class="cls-63" x="715.62" y="795.36" width="5.12" height="8.86"/><rect class="cls-63" x="723.92" y="795.36" width="5.12" height="8.86"/><rect class="cls-63" x="732.22" y="795.36" width="5.12" height="8.86"/><rect class="cls-63" x="740.53" y="795.36" width="5.12" height="8.86"/><rect class="cls-63" x="748.83" y="795.36" width="5.12" height="8.86"/><rect class="cls-63" x="757.13" y="795.36" width="5.12" height="8.86"/><rect class="cls-63" x="765.43" y="795.36" width="5.12" height="8.86"/><rect class="cls-63" x="773.74" y="795.36" width="5.12" height="8.86"/><rect class="cls-63" x="782.04" y="795.36" width="5.12" height="8.86"/><rect class="cls-63" x="790.34" y="795.36" width="5.12" height="8.86"/><rect class="cls-63" x="798.64" y="795.36" width="5.12" height="8.86"/><rect class="cls-63" x="806.94" y="795.36" width="5.12" height="8.86"/><rect class="cls-62" x="670.07" y="700" width="146.03" height="20.38"/><rect class="cls-63" x="674.11" y="705.76" width="5.12" height="8.86"/><rect class="cls-63" x="682.41" y="705.76" width="5.12" height="8.86"/><rect class="cls-63" x="690.71" y="705.76" width="5.12" height="8.86"/><rect class="cls-63" x="699.01" y="705.76" width="5.12" height="8.86"/><rect class="cls-63" x="707.32" y="705.76" width="5.12" height="8.86"/><rect class="cls-63" x="715.62" y="705.76" width="5.12" height="8.86"/><rect class="cls-63" x="723.92" y="705.76" width="5.12" height="8.86"/><rect class="cls-63" x="732.22" y="705.76" width="5.12" height="8.86"/><rect class="cls-63" x="740.53" y="705.76" width="5.12" height="8.86"/><rect class="cls-63" x="748.83" y="705.76" width="5.12" height="8.86"/><rect class="cls-63" x="757.13" y="705.76" width="5.12" height="8.86"/><rect class="cls-63" x="765.43" y="705.76" width="5.12" height="8.86"/><rect class="cls-63" x="773.74" y="705.76" width="5.12" height="8.86"/><rect class="cls-63" x="782.04" y="705.76" width="5.12" height="8.86"/><rect class="cls-63" x="790.34" y="705.76" width="5.12" height="8.86"/><rect class="cls-63" x="798.64" y="705.76" width="5.12" height="8.86"/><rect class="cls-63" x="806.94" y="705.76" width="5.12" height="8.86"/><rect class="cls-62" x="694.54" y="676.02" width="27.13" height="20.19" rx="1.26" ry="1.26"/><rect class="cls-64" x="666.98" y="700.92" width="82.25" height="111.81"/><rect class="cls-65" x="666.98" y="700.92" width="82.25" height="13.69"/><rect class="cls-18" x="666.98" y="763.47" width="82.25" height="27.46"/><rect class="cls-66" x="662.63" y="689.71" width="90.95" height="20.39" rx="1.27" ry="1.27"/><rect class="cls-66" x="662.63" y="803.55" width="90.95" height="20.39" rx="1.27" ry="1.27"/><rect class="cls-67" x="900" y="899.99" width="300" height="300.01"/><circle class="cls-27" cx="1050" cy="1049.99" r="1.74"/><path class="cls-68" d="M1142.93,1107.88a2.87,2.87,0,0,1-2.82,2.92H960.85a2.87,2.87,0,0,1-2.82-2.92V992.11a2.87,2.87,0,0,1,2.82-2.92h179.26a2.87,2.87,0,0,1,2.82,2.92Z" transform="translate(-0.48)"/><path class="cls-39" d="M1135.43,1066.26a3.25,3.25,0,0,1-3.16,3.32H968.7a3.25,3.25,0,0,1-3.17-3.32V999.84a3.25,3.25,0,0,1,3.17-3.32h163.56a3.25,3.25,0,0,1,3.16,3.32Z" transform="translate(-0.48)"/><polygon class="cls-69" points="1123.65 1006.81 1123.65 1006.81 976.35 1006.81 976.35 1006.81 976.35 1006.11 976.35 1006.11 1123.65 1006.11 1123.65 1006.11 1123.65 1006.81"/><polygon class="cls-69" points="1123.65 1018.81 1123.65 1018.81 976.35 1018.81 976.35 1018.81 976.35 1018.11 976.35 1018.11 1123.65 1018.11 1123.65 1018.11 1123.65 1018.81"/><polygon class="cls-69" points="1123.65 1030.82 1123.65 1030.82 976.35 1030.82 976.35 1030.82 976.35 1030.12 976.35 1030.12 1123.65 1030.12 1123.65 1030.12 1123.65 1030.82"/><path class="cls-70" d="M1099.05,1050.16c0,6.66-5.06,12.06-11.31,12.06h-74.51c-6.25,0-11.31-5.4-11.31-12.06h0c0-6.66,5.06-12.06,11.31-12.06h74.51c6.25,0,11.31,5.4,11.31,12.06Z" transform="translate(-0.48)"/><path class="cls-71" d="M1051,1038.09h-37.74c-6.25,0-11.31,5.4-11.31,12.06s5.06,12.06,11.31,12.06H1051a38,38,0,0,0,0-24.13Z" transform="translate(-0.48)"/><path class="cls-71" d="M1099.05,1050.16c0-6.66-5.06-12.06-11.31-12.06h-26.55a27.25,27.25,0,0,0,0,24.13h26.55C1094,1062.22,1099.05,1056.82,1099.05,1050.16Z" transform="translate(-0.48)"/><path class="cls-72" d="M1016.87,1040.07a10.09,10.09,0,1,0,10.09,10.09A10.09,10.09,0,0,0,1016.87,1040.07Zm0,18.63a8.54,8.54,0,1,1,8.54-8.54A8.54,8.54,0,0,1,1016.87,1058.7Z" transform="translate(-0.48)"/><path class="cls-72" d="M1084.1,1040.07a10.09,10.09,0,1,0,10.09,10.09A10.09,10.09,0,0,0,1084.1,1040.07Zm0,18.63a8.54,8.54,0,1,1,8.54-8.54A8.54,8.54,0,0,1,1084.1,1058.7Z" transform="translate(-0.48)"/><path class="cls-73" d="M1116.3,1107.77l-8.65-28.58a2.25,2.25,0,0,0-2.12-1.63h-110a2.24,2.24,0,0,0-2.12,1.63l-8.65,28.58a2.41,2.41,0,0,0,.33,2.08,2.2,2.2,0,0,0,1.8.95h127.31a2.2,2.2,0,0,0,1.8-.95A2.41,2.41,0,0,0,1116.3,1107.77Z" transform="translate(-0.48)"/><circle class="cls-6" cx="1006.86" cy="1100.36" r="2.56"/><rect class="cls-6" x="1012.69" y="1089.81" width="4.59" height="4.76" rx="0.67" ry="0.67"/><circle class="cls-6" cx="1093.14" cy="1100.36" r="2.56"/><rect class="cls-6" x="1082.72" y="1089.81" width="4.59" height="4.76" rx="0.67" ry="0.67"/><rect class="cls-74" x="600" width="300" height="300.01"/><circle class="cls-3" cx="830.46" cy="190.76" r="26.88"/><circle class="cls-16" cx="830.46" cy="190.76" r="16.5"/><circle class="cls-7" cx="830.46" cy="190.76" r="15.57"/><circle class="cls-16" cx="830.46" cy="190.76" r="14.65"/><circle class="cls-7" cx="830.46" cy="190.76" r="9.72"/><circle class="cls-16" cx="830.46" cy="190.76" r="9.08"/><circle class="cls-3" cx="679.81" cy="190.76" r="26.88"/><circle class="cls-16" cx="679.81" cy="190.76" r="16.5"/><circle class="cls-7" cx="679.81" cy="190.76" r="15.57"/><circle class="cls-16" cx="679.81" cy="190.76" r="14.65"/><circle class="cls-7" cx="679.81" cy="190.76" r="9.72"/><circle class="cls-16" cx="679.81" cy="190.76" r="9.08"/><path class="cls-75" d="M803.51,190.65s-7.22.71-9.23-1.47-1.12-6.64.6-10.18,9.58-17.86,12.17-20.19,12.08-8.8,17.78-9.58,16.91-.6,24,6,10.53,13.34,4.92,14.56-16,3.47-19.33,5.2-13.63,8.46-15.1,9.49S809.66,190.8,803.51,190.65Z" transform="translate(-0.48)"/><path class="cls-76" d="M689.85,188.95H672.71s-16.41.33-20.4-.41S640.53,180.09,644,172s13.41-24.3,24.7-28.69,40.75-8.53,40.75-8.53l13-2c7.13-1.1,14.77-3.13,22-3.08,1.15,0,2.6.35,2.77,1.48.13.87-.63,1.6-1.33,2.14-5.23,4.09-10.83,7.84-15.13,12.91s-7.19,11.85-5.79,18.35a23.35,23.35,0,0,0,4.68,9.19,14.61,14.61,0,0,0,5.12,4.56,17,17,0,0,0,6.63,1.15c12.22.43,24.46.23,36.69,0,1.81,0,3.76-.1,5.22-1.17a8.71,8.71,0,0,0,2.36-3.22q3.28-6.4,6.13-13c2.92-6.79,5.53-14,4.87-21.38C796,133,792,126.19,790,118.83c-.93-3.47-.5-6.87-1.11-10.27a44.93,44.93,0,0,0-2.08-6.15l6.42-2.44s-.32,1.63,2.11,1.63,8.69,15.28,9.26,16.74,7.88,20.07,7.88,20.07,7.07,9.75,7.19,12.07-4.14,4.44-5.73,5a15.07,15.07,0,0,0-6.34,6.43c-1.34,2.93-11,22.43-14.63,25.23a30.46,30.46,0,0,1-18.41,5.73h-56.8s-7.19.61-12.8-1.34S689.85,188.95,689.85,188.95Z" transform="translate(-0.48)"/><path class="cls-3" d="M688,140.31s-15.37,2.71-18.21,3-4.26-.93-3.15-3a15,15,0,0,0,.87-13.15c-2.44-6.53-5-11.88,5.44-10.69s27.75,1.36,27.75,1.36h40.37s4.49.34,4.81,4.5.83,6.19-4.1,7.76-21,7.55-29.25,7.8S688,140.31,688,140.31Z" transform="translate(-0.48)"/><rect class="cls-2" x="771.82" y="96.19" width="20.43" height="4.35" transform="translate(7 244.38) rotate(-17.84)"/><circle class="cls-2" cx="772.31" cy="101.49" r="2.18" transform="translate(5.57 241.52) rotate(-17.84)"/><path class="cls-75" d="M788,103s-4.39-.81-4.39-2.19-2.44-6.42,1.63-8.29,7.56-2.28,8.69-3.25,3.33-4.55,7.23-5.61,9.34-2.19,9.75,0-.24,11.13-.65,12.76-1.71,4.47-4.23,5.28-5.44-.24-6.74-.81-2.19-1.71-3.58-1.46-1.73.25-2.45,1.22S788.46,103.07,788,103Z" transform="translate(-0.48)"/><path class="cls-7" d="M806.14,82.55v19.09c2.46-.85,3.74-3.64,4.14-5.25s1.06-10.56.65-12.76C810.68,82.31,808.6,82.2,806.14,82.55Z" transform="translate(-0.48)"/><path class="cls-75" d="M804.56,118.31c-.44-1.12-4.21-10.35-7.05-14.61a102.17,102.17,0,0,0,.39,14.36c.33,2.93,6,19,8.21,26.17a42,42,0,0,0,6.54,11.94,6.26,6.26,0,0,1,1.26-.69c1.58-.58,5.85-2.71,5.73-5s-7.19-12.07-7.19-12.07S805.13,119.78,804.56,118.31Z" transform="translate(-0.48)"/><path class="cls-75" d="M652.52,185s-7.64-4.34-3.86-11.82,9.93-16.57,15.7-20.51S681.68,143,692,142c11-1.12,17.29,3,20.43,6.27s8.45,12.15,8.85,16.81-2.49,10.86-4.26,14.24-5.52,9.49-7.64,9.89-11.94-1.84-16.25-2-21.14-.48-21.14-.48S658.39,187.57,652.52,185Z" transform="translate(-0.48)"/><path class="cls-77" d="M683.7,164.4a19.91,19.91,0,0,0-5.37.72h10.73A19.91,19.91,0,0,0,683.7,164.4Z" transform="translate(-0.48)"/><path class="cls-77" d="M683.7,180.14a19.9,19.9,0,0,0,5.37-.72H678.33A19.9,19.9,0,0,0,683.7,180.14Z" transform="translate(-0.48)"/><path class="cls-77" d="M675.08,178.11h17.25a11.07,11.07,0,0,0,1.87-1.29h-21A11.07,11.07,0,0,0,675.08,178.11Z" transform="translate(-0.48)"/><path class="cls-77" d="M672,175.51h23.45a6.15,6.15,0,0,0,.74-1.29H671.24A6.17,6.17,0,0,0,672,175.51Z" transform="translate(-0.48)"/><path class="cls-77" d="M670.83,172.27a4.91,4.91,0,0,0,0,.64h25.64a4.48,4.48,0,0,0,0-1.29H670.88A4.92,4.92,0,0,0,670.83,172.27Z" transform="translate(-0.48)"/><path class="cls-77" d="M671.24,170.32h24.93a6.16,6.16,0,0,0-.74-1.29H672A6.17,6.17,0,0,0,671.24,170.32Z" transform="translate(-0.48)"/><path class="cls-77" d="M673.21,167.72h21a11.06,11.06,0,0,0-1.87-1.29H675.08A11.07,11.07,0,0,0,673.21,167.72Z" transform="translate(-0.48)"/><rect class="cls-2" x="775.55" y="99.57" width="17.07" height="3.64" transform="translate(101.22 500.67) rotate(-37.7)"/><circle class="cls-2" cx="777.33" cy="106.61" r="1.82" transform="translate(96.62 497.63) rotate(-37.7)"/><circle class="cls-2" cx="790.33" cy="96.11" r="1.9"/><rect class="cls-78" x="900" y="299.96" width="300" height="300.01"/><path class="cls-79" d="M976.45,484.54H968.2c-2.28,0-4.13,1.42-4.13,3.18s1.85,3.19,4.13,3.19h8.25Z" transform="translate(-0.48)"/><path class="cls-79" d="M968.06,489c-.25,0-24.76-.24-24.76-21.14s24.51-21.14,24.76-21.14H1110c.92,0,22.54-.25,22.54-18.91h2.22c0,20.9-24.51,21.14-24.76,21.14H968.06c-.92,0-22.54.25-22.54,18.91s21.62,18.91,22.54,18.91Z" transform="translate(-0.48)"/><path class="cls-79" d="M1113.47,448.5v-2.23c.4,0,40.27-.23,40.27-18.91H1156C1156,448.26,1115.2,448.5,1113.47,448.5Z" transform="translate(-0.48)"/><path class="cls-80" d="M1136.14,406.24a.34.34,0,0,0-.25-.11h-4.31a.34.34,0,0,0-.25.11.35.35,0,0,0-.1.25l.3,22.11a.35.35,0,0,0,.35.34h3.71a.35.35,0,0,0,.35-.34l.3-22.11A.34.34,0,0,0,1136.14,406.24Z" transform="translate(-0.48)"/><circle class="cls-79" cx="1133.25" cy="402.24" r="8.91"/><circle class="cls-80" cx="1133.25" cy="402.24" r="6.94"/><path class="cls-80" d="M1157.15,406.24a.35.35,0,0,0-.25-.11h-4.31a.35.35,0,0,0-.35.35l.3,22.11a.35.35,0,0,0,.35.34h3.71a.35.35,0,0,0,.35-.34l.3-22.11A.35.35,0,0,0,1157.15,406.24Z" transform="translate(-0.48)"/><circle class="cls-79" cx="1154.26" cy="402.24" r="8.91"/><circle class="cls-80" cx="1154.26" cy="402.24" r="6.94"/><rect class="cls-80" x="1010.98" y="403.16" width="18.66" height="9.57" rx="3.14" ry="3.14"/><rect class="cls-80" x="1030.33" y="403.16" width="18.66" height="9.57" rx="3.14" ry="3.14"/><rect class="cls-80" x="1049.67" y="403.16" width="18.66" height="9.57" rx="3.14" ry="3.14"/><path class="cls-79" d="M1100.43,411.93c0,.88-1.05,1.59-2.35,1.59h-26.18c-1.3,0-2.35-.71-2.35-1.59V403.7c0-.88,1.05-1.59,2.35-1.59h26.18c1.3,0,2.35.71,2.35,1.59Z" transform="translate(-0.48)"/><rect class="cls-81" x="974.39" y="407.8" width="142.53" height="104.79" rx="9.15" ry="9.15"/><path class="cls-7" d="M974.87,486.81v16.62a9.15,9.15,0,0,0,9.15,9.15h124.22a9.15,9.15,0,0,0,9.15-9.15V486.81Z" transform="translate(-0.48)"/><path class="cls-7" d="M1100.25,472.23c-1.54-9-.31-22-6.65-29.93s-16.46-11.08-23.94-11.08-17.6,3.16-23.94,11.08-5.11,20.91-6.65,29.93-12.76,15.62-12.76,15.62H1113S1101.79,481.25,1100.25,472.23Z" transform="translate(-0.48)"/><circle class="cls-6" cx="1069.18" cy="461.73" r="23.32"/><circle class="cls-7" cx="1069.18" cy="459.76" r="14.73"/><path class="cls-7" d="M1108.25,408H984a9.15,9.15,0,0,0-9.15,9.15V419H1117.4V417.2A9.15,9.15,0,0,0,1108.25,408Z" transform="translate(-0.48)"/><rect class="cls-82" x="600" y="899.99" width="300" height="300.01"/><circle class="cls-33" cx="750" cy="1049.99" r="91.01"/><circle class="cls-83" cx="750" cy="1049.99" r="87"/><circle class="cls-84" cx="750" cy="1049.99" r="27.66"/><circle class="cls-85" cx="750" cy="1049.99" r="24.71"/><circle class="cls-7" cx="750" cy="1049.99" r="21.56"/><circle class="cls-84" cx="750" cy="1050" r="12.19"/><circle class="cls-82" cx="750" cy="1049.99" r="9.88"/><rect class="cls-86" x="900" width="300" height="300.01"/><rect class="cls-87" x="963.52" y="110.66" width="9.2" height="14" rx="2.6" ry="2.6"/><circle class="cls-88" cx="968.61" cy="118.3" r="1.13" transform="translate(69.95 499.72) rotate(-29.97)"/><rect class="cls-88" x="970.93" y="118.39" width="0.78" height="9.25" transform="translate(68.06 501.95) rotate(-29.99)"/><rect class="cls-88" x="971.97" y="126.41" width="1.75" height="2.3" rx="0.4" ry="0.4"/><rect class="cls-88" x="972.92" y="126.61" width="1.76" height="1.9"/><rect class="cls-87" x="1127.28" y="110.66" width="9.2" height="14" rx="2.6" ry="2.6"/><circle class="cls-88" cx="1132.36" cy="118.3" r="1.13" transform="translate(463.67 1040.11) rotate(-60.03)"/><rect class="cls-88" x="1125.02" y="122.62" width="9.25" height="0.78" transform="translate(458.06 1039.99) rotate(-60.02)"/><rect class="cls-88" x="1126.28" y="126.41" width="1.75" height="2.3" rx="0.4" ry="0.4"/><rect class="cls-88" x="1125.32" y="126.61" width="1.76" height="1.9"/><path class="cls-3" d="M1005.12,227.79a4,4,0,0,1-4.21,3.86H988.28a4,4,0,0,1-4.21-3.86V202.07a4,4,0,0,1,4.21-3.86h12.62a4,4,0,0,1,4.21,3.86Z" transform="translate(-0.48)"/><path class="cls-3" d="M1116.9,227.79a4,4,0,0,1-4.21,3.86h-12.62a4,4,0,0,1-4.21-3.86V202.07a4,4,0,0,1,4.21-3.86h12.62a4,4,0,0,1,4.21,3.86Z" transform="translate(-0.48)"/><path class="cls-89" d="M1128.43,151c-.87-9.67-2.47-21.86-2.47-21.86a14,14,0,0,0,.69-3.59,5.43,5.43,0,0,0-.87-2.58c-.47-.69-.76-7.77-.76-7.77s-1.23-6.75-1.67-8.93-3-12.34-3.85-14.81-5.73-14.73-21.77-18.44-35.42-4.65-35.42-4.65h-23.66s-19.38.94-35.42,4.65-20.9,16-21.77,18.44-3.41,12.63-3.85,14.81-1.67,8.93-1.67,8.93-.29,7.08-.76,7.77a5.43,5.43,0,0,0-.87,2.58,14,14,0,0,0,.69,3.59s-1.6,12.19-2.47,21.86.29,49.84,1.45,54.78a7.48,7.48,0,0,0,5.81,5.66h141.38a7.47,7.47,0,0,0,5.81-5.66C1128.14,200.82,1129.3,160.65,1128.43,151Z" transform="translate(-0.48)"/><rect class="cls-7" x="971.91" y="201.33" width="156.18" height="7.26"/><path class="cls-7" d="M1129.76,201.48a1.31,1.31,0,0,1-1.32,1.31H972.52a1.31,1.31,0,0,1-1.32-1.31V199a1.31,1.31,0,0,1,1.32-1.31h155.92a1.31,1.31,0,0,1,1.32,1.31Z" transform="translate(-0.48)"/><path class="cls-7" d="M1129.76,210.77a1.31,1.31,0,0,1-1.32,1.31H972.52a1.31,1.31,0,0,1-1.32-1.31V208.3a1.31,1.31,0,0,1,1.32-1.31h155.92a1.31,1.31,0,0,1,1.32,1.31Z" transform="translate(-0.48)"/><rect class="cls-90" x="971.91" y="206.57" width="156.18" height="0.42"/><rect class="cls-90" x="971.91" y="202.78" width="156.18" height="0.42"/><rect class="cls-91" x="974.87" y="127.65" width="150.26" height="1.72"/><circle class="cls-91" cx="999.5" cy="168.75" r="14.08"/><circle class="cls-92" cx="998.88" cy="168.75" r="11.68"/><circle class="cls-93" cx="998.88" cy="168.75" r="8.98"/><circle class="cls-7" cx="998.88" cy="168.75" r="8.29"/><circle class="cls-92" cx="998.88" cy="168.75" r="3.56"/><circle class="cls-91" cx="1100.5" cy="168.75" r="14.08"/><circle class="cls-92" cx="1101.12" cy="168.75" r="11.68"/><circle class="cls-93" cx="1101.12" cy="168.75" r="8.98"/><circle class="cls-7" cx="1101.12" cy="168.75" r="8.29"/><circle class="cls-92" cx="1101.12" cy="168.75" r="3.56"/><path class="cls-7" d="M1126.38,127.59a7.5,7.5,0,0,0,.27-2.06,5.43,5.43,0,0,0-.87-2.58c-.47-.69-.76-7.77-.76-7.77s-1.23-6.75-1.67-8.93-3-12.34-3.85-14.81-5.73-14.73-21.77-18.44-35.42-4.65-35.42-4.65h-23.66s-19.38.94-35.42,4.65-20.9,16-21.77,18.44-3.41,12.63-3.85,14.81-1.67,8.93-1.67,8.93-.29,7.08-.76,7.77a5.43,5.43,0,0,0-.87,2.58,7.49,7.49,0,0,0,.27,2.06Z" transform="translate(-0.48)"/><path class="cls-94" d="M1121.92,119.8c-.78-4.58-4.65-21.75-4.65-21.75s-1.83-6.6-2.38-7.82-2.55-8.25-13.57-10.39-24-3.91-30.23-4.22-17.89-1-20.6-1-14.4.67-20.6,1-19.22,2.08-30.23,4.22-13,9.17-13.57,10.39S983.7,98,983.7,98s-3.88,17.17-4.65,21.75,1.66,4.28,1.66,4.28h139.55S1122.69,124.38,1121.92,119.8Z" transform="translate(-0.48)"/><path class="cls-16" d="M1119.78,118.26c-.75-4.24-4.51-20.11-4.51-20.11s-1.77-6.1-2.31-7.23-2.47-7.63-13.16-9.6a270.25,270.25,0,0,0-29.33-3.9c-6-.28-17.35-.9-20-.9s-14,.62-20,.9a270.27,270.27,0,0,0-29.33,3.9c-10.69,2-12.62,8.47-13.16,9.6s-2.31,7.23-2.31,7.23-3.76,15.88-4.51,20.11,1.61,4,1.61,4h135.37S1120.53,122.5,1119.78,118.26Z" transform="translate(-0.48)"/><path class="cls-55" d="M1083.79,81.5c-5.83-.76-11.13-1.3-14.39-1.44-5.75-.25-16.57-.81-19.08-.81s-13.34.56-19.08.81a273.83,273.83,0,0,0-28,3.5c-10.21,1.77-12.06,7.6-12.57,8.62s-2.21,6.49-2.21,6.49-3.59,14.24-4.31,18c-.32,1.71,0,2.6.36,3.06Z" transform="translate(-0.48)"/><path class="cls-94" d="M1091.05,149.46a.52.52,0,0,1-.47.56h-80.21a.52.52,0,0,1-.47-.56V139.25a.52.52,0,0,1,.47-.56h80.21a.52.52,0,0,1,.47.56Z" transform="translate(-0.48)"/><path class="cls-80" d="M1090.11,148.6a.46.46,0,0,1-.45.46h-78.34a.46.46,0,0,1-.46-.46v-8.5a.46.46,0,0,1,.46-.46h78.34a.46.46,0,0,1,.45.46Z" transform="translate(-0.48)"/><polygon class="cls-94" points="1012.18 147.58 1012.18 147.58 1011.56 147.58 1011.56 147.58 1011.56 141.13 1011.56 141.13 1012.18 141.13 1012.18 141.13 1012.18 147.58"/><polygon class="cls-94" points="1014.49 147.58 1014.49 147.58 1013.87 147.58 1013.87 147.58 1013.87 141.13 1013.87 141.13 1014.49 141.13 1014.49 141.13 1014.49 147.58"/><polygon class="cls-94" points="1016.8 147.58 1016.8 147.58 1016.18 147.58 1016.18 147.58 1016.18 141.13 1016.18 141.13 1016.8 141.13 1016.8 141.13 1016.8 147.58"/><polygon class="cls-94" points="1019.11 147.58 1019.11 147.58 1018.49 147.58 1018.49 147.58 1018.49 141.13 1018.49 141.13 1019.11 141.13 1019.11 141.13 1019.11 147.58"/><polygon class="cls-94" points="1021.42 147.58 1021.42 147.58 1020.8 147.58 1020.8 147.58 1020.8 141.13 1020.8 141.13 1021.42 141.13 1021.42 141.13 1021.42 147.58"/><polygon class="cls-94" points="1023.73 147.58 1023.73 147.58 1023.11 147.58 1023.11 147.58 1023.11 141.13 1023.11 141.13 1023.73 141.13 1023.73 141.13 1023.73 147.58"/><polygon class="cls-94" points="1026.05 147.58 1026.05 147.58 1025.42 147.58 1025.42 147.58 1025.42 141.13 1025.42 141.13 1026.05 141.13 1026.05 141.13 1026.05 147.58"/><polygon class="cls-94" points="1028.36 147.58 1028.36 147.58 1027.74 147.58 1027.74 147.58 1027.74 141.13 1027.74 141.13 1028.36 141.13 1028.36 141.13 1028.36 147.58"/><polygon class="cls-94" points="1030.67 147.58 1030.67 147.58 1030.05 147.58 1030.05 147.58 1030.05 141.13 1030.05 141.13 1030.67 141.13 1030.67 141.13 1030.67 147.58"/><polygon class="cls-94" points="1032.98 147.58 1032.98 147.58 1032.36 147.58 1032.36 147.58 1032.36 141.13 1032.36 141.13 1032.98 141.13 1032.98 141.13 1032.98 147.58"/><polygon class="cls-94" points="1035.29 147.58 1035.29 147.58 1034.67 147.58 1034.67 147.58 1034.67 141.13 1034.67 141.13 1035.29 141.13 1035.29 141.13 1035.29 147.58"/><polygon class="cls-94" points="1037.6 147.58 1037.6 147.58 1036.98 147.58 1036.98 147.58 1036.98 141.13 1036.98 141.13 1037.6 141.13 1037.6 141.13 1037.6 147.58"/><polygon class="cls-94" points="1039.91 147.58 1039.91 147.58 1039.29 147.58 1039.29 147.58 1039.29 141.13 1039.29 141.13 1039.91 141.13 1039.91 141.13 1039.91 147.58"/><polygon class="cls-94" points="1042.22 147.58 1042.22 147.58 1041.6 147.58 1041.6 147.58 1041.6 141.13 1041.6 141.13 1042.22 141.13 1042.22 141.13 1042.22 147.58"/><polygon class="cls-94" points="1044.53 147.58 1044.53 147.58 1043.91 147.58 1043.91 147.58 1043.91 141.13 1043.91 141.13 1044.53 141.13 1044.53 141.13 1044.53 147.58"/><polygon class="cls-94" points="1046.84 147.58 1046.84 147.58 1046.22 147.58 1046.22 147.58 1046.22 141.13 1046.22 141.13 1046.84 141.13 1046.84 141.13 1046.84 147.58"/><polygon class="cls-94" points="1049.15 147.58 1049.15 147.58 1048.53 147.58 1048.53 147.58 1048.53 141.13 1048.53 141.13 1049.15 141.13 1049.15 141.13 1049.15 147.58"/><polygon class="cls-94" points="1051.46 147.58 1051.46 147.58 1050.85 147.58 1050.85 147.58 1050.85 141.13 1050.85 141.13 1051.46 141.13 1051.46 141.13 1051.46 147.58"/><polygon class="cls-94" points="1053.78 147.58 1053.78 147.58 1053.16 147.58 1053.16 147.58 1053.16 141.13 1053.16 141.13 1053.78 141.13 1053.78 141.13 1053.78 147.58"/><polygon class="cls-94" points="1056.09 147.58 1056.09 147.58 1055.47 147.58 1055.47 147.58 1055.47 141.13 1055.47 141.13 1056.09 141.13 1056.09 141.13 1056.09 147.58"/><polygon class="cls-94" points="1058.4 147.58 1058.4 147.58 1057.78 147.58 1057.78 147.58 1057.78 141.13 1057.78 141.13 1058.4 141.13 1058.4 141.13 1058.4 147.58"/><polygon class="cls-94" points="1060.71 147.58 1060.71 147.58 1060.09 147.58 1060.09 147.58 1060.09 141.13 1060.09 141.13 1060.71 141.13 1060.71 141.13 1060.71 147.58"/><polygon class="cls-94" points="1063.02 147.58 1063.02 147.58 1062.4 147.58 1062.4 147.58 1062.4 141.13 1062.4 141.13 1063.02 141.13 1063.02 141.13 1063.02 147.58"/><polygon class="cls-94" points="1065.33 147.58 1065.33 147.58 1064.71 147.58 1064.71 147.58 1064.71 141.13 1064.71 141.13 1065.33 141.13 1065.33 141.13 1065.33 147.58"/><polygon class="cls-94" points="1067.64 147.58 1067.64 147.58 1067.02 147.58 1067.02 147.58 1067.02 141.13 1067.02 141.13 1067.64 141.13 1067.64 141.13 1067.64 147.58"/><polygon class="cls-94" points="1069.95 147.58 1069.95 147.58 1069.33 147.58 1069.33 147.58 1069.33 141.13 1069.33 141.13 1069.95 141.13 1069.95 141.13 1069.95 147.58"/><polygon class="cls-94" points="1072.26 147.58 1072.26 147.58 1071.64 147.58 1071.64 147.58 1071.64 141.13 1071.64 141.13 1072.26 141.13 1072.26 141.13 1072.26 147.58"/><polygon class="cls-94" points="1074.57 147.58 1074.57 147.58 1073.95 147.58 1073.95 147.58 1073.95 141.13 1073.95 141.13 1074.57 141.13 1074.57 141.13 1074.57 147.58"/><polygon class="cls-94" points="1076.88 147.58 1076.88 147.58 1076.27 147.58 1076.27 147.58 1076.27 141.13 1076.27 141.13 1076.88 141.13 1076.88 141.13 1076.88 147.58"/><polygon class="cls-94" points="1079.2 147.58 1079.2 147.58 1078.58 147.58 1078.58 147.58 1078.58 141.13 1078.58 141.13 1079.2 141.13 1079.2 141.13 1079.2 147.58"/><polygon class="cls-94" points="1081.51 147.58 1081.51 147.58 1080.89 147.58 1080.89 147.58 1080.89 141.13 1080.89 141.13 1081.51 141.13 1081.51 141.13 1081.51 147.58"/><polygon class="cls-94" points="1083.82 147.58 1083.82 147.58 1083.2 147.58 1083.2 147.58 1083.2 141.13 1083.2 141.13 1083.82 141.13 1083.82 141.13 1083.82 147.58"/><polygon class="cls-94" points="1086.13 147.58 1086.13 147.58 1085.51 147.58 1085.51 147.58 1085.51 141.13 1085.51 141.13 1086.13 141.13 1086.13 141.13 1086.13 147.58"/><polygon class="cls-94" points="1088.44 147.58 1088.44 147.58 1087.82 147.58 1087.82 147.58 1087.82 141.13 1087.82 141.13 1088.44 141.13 1088.44 141.13 1088.44 147.58"/><rect class="cls-95" y="899.99" width="300" height="300.01"/><rect class="cls-96" x="230.56" y="949.35" width="2.42" height="4.5" transform="translate(-605.49 442.62) rotate(-45)"/><rect class="cls-96" x="228.01" y="949.17" width="4.36" height="1.68" rx="0.3" ry="0.3" transform="translate(-604.85 441.07) rotate(-45)"/><rect class="cls-96" x="251.43" y="970.21" width="2.42" height="4.5" transform="translate(-614.11 463.46) rotate(-45)"/><rect class="cls-96" x="252.05" y="973.21" width="4.36" height="1.68" rx="0.3" ry="0.3" transform="translate(-614.75 465) rotate(-45)"/><rect class="cls-96" x="218.96" y="963.68" width="2.42" height="4.5" transform="translate(-619.02 438.61) rotate(-45)"/><rect class="cls-96" x="216.4" y="963.5" width="4.36" height="1.68" rx="0.3" ry="0.3" transform="translate(-618.39 437.06) rotate(-45)"/><rect class="cls-96" x="237.77" y="982.5" width="2.42" height="4.5" transform="translate(-626.78 457.37) rotate(-45)"/><rect class="cls-96" x="238.4" y="985.5" width="4.36" height="1.68" rx="0.3" ry="0.3" transform="translate(-627.43 458.95) rotate(-45)"/><path class="cls-97" d="M143,1113.4c1.86-8,4.83-15.47,19-24.32s15.1-26.74,5.68-36.15l-6.93-6.93-2.48-2.48-6.93-6.93c-9.41-9.41-27.3-8.49-36.15,5.68s-16.31,17.14-24.32,19-31.57,6.31-39.19,28.61,15.73,42,15.73,42l1,1,3.07,3.07,1,1s19.65,23.35,42,15.73S141.11,1121.4,143,1113.4Z" transform="translate(-0.48)"/><path class="cls-97" d="M258.37,966.48s-4.42-8.38-6.51-11.18l.05-.05-.6-.6-1.72-1.72-.6-.6-.05.05c-2.8-2.1-11.18-6.51-11.18-6.51s-16.26,14.91-18,20.48-6.89,11.32-6.89,11.32l5.38,5.38,2.91,2.91,5.38,5.38s5.75-5.17,11.32-6.89S258.37,966.48,258.37,966.48Z" transform="translate(-0.48)"/><circle class="cls-98" cx="132.38" cy="1071.87" r="14.12" transform="translate(-719.62 407.53) rotate(-45)"/><path class="cls-98" d="M143.59,1060.65a15.86,15.86,0,1,0,0,22.44A15.86,15.86,0,0,0,143.59,1060.65Zm-22,22a15.19,15.19,0,1,1,21.48,0A15.19,15.19,0,0,1,121.64,1082.61Z" transform="translate(-0.48)"/><rect class="cls-99" x="89.11" y="1091.85" width="10.38" height="36.19" rx="0.97" ry="0.97" transform="translate(-757.7 391.76) rotate(-45)"/><path class="cls-55" d="M107.22,1118.77a.48.48,0,0,1-.68,0L85.47,1097.7a.48.48,0,0,1,0-.68h0a.48.48,0,0,1,.68,0l21.07,21.07a.48.48,0,0,1,0,.68Z" transform="translate(-0.48)"/><polygon class="cls-99" points="212.94 978.19 145.95 1042.96 153.38 1050.38 160.8 1057.8 225.56 990.82 212.94 978.19"/><circle class="cls-93" cx="235.7" cy="980.38" r="2.21" transform="translate(-624.67 453.8) rotate(-45)"/><circle class="cls-93" cx="223.86" cy="968.54" r="2.21" transform="translate(-619.76 441.94) rotate(-45)"/><circle class="cls-93" cx="247.99" cy="966.73" r="2.22" transform="translate(-611.43 458.5) rotate(-45)"/><circle class="cls-93" cx="237.51" cy="956.25" r="2.21" transform="translate(-607.06 447.98) rotate(-45)"/><polygon class="cls-55" points="224.56 991.86 225.56 990.82 212.94 978.19 211.89 979.2 224.56 991.86"/><polygon class="cls-55" points="219.52 997.07 206.69 984.23 206.15 984.75 219 997.61 219.52 997.07"/><polygon class="cls-55" points="200.04 990.65 213.1 1003.71 213.62 1003.17 200.58 990.13 200.04 990.65"/><polygon class="cls-55" points="195.01 995.52 208.24 1008.74 208.76 1008.2 195.55 995 195.01 995.52"/><polygon class="cls-55" points="188.55 1001.77 201.99 1015.21 202.51 1014.67 189.09 1001.25 188.55 1001.77"/><polygon class="cls-55" points="181.73 1008.37 195.39 1022.03 195.91 1021.49 182.26 1007.85 181.73 1008.37"/><polygon class="cls-55" points="173.85 1015.98 187.78 1029.9 188.3 1029.36 174.39 1015.46 173.85 1015.98"/><polygon class="cls-55" points="166.82 1022.78 180.98 1036.93 181.5 1036.4 167.36 1022.26 166.82 1022.78"/><polygon class="cls-55" points="160.18 1029.21 174.55 1043.58 175.07 1043.04 160.72 1028.68 160.18 1029.21"/><polygon class="cls-55" points="154.61 1034.59 169.17 1049.14 169.69 1048.61 155.15 1034.07 154.61 1034.59"/><polygon class="cls-55" points="149.22 1039.8 163.96 1054.53 164.48 1053.99 149.76 1039.28 149.22 1039.8"/><rect class="cls-93" x="61.94" y="1035.54" width="191.72" height="0.58" transform="translate(-686.63 414.86) rotate(-44.99)"/><rect class="cls-93" x="67.99" y="1044.98" width="175.39" height="0.58" transform="translate(-693.99 416.24) rotate(-45)"/><polygon class="cls-93" points="238.03 956.82 237.58 956.45 217.01 983.05 217.45 983.42 238.03 956.82"/><rect class="cls-93" x="71.28" y="1048.26" width="175.39" height="0.58" transform="translate(-695.36 419.52) rotate(-45)"/><polygon class="cls-93" points="246.93 965.73 247.3 966.17 220.7 986.75 220.33 986.3 246.93 965.73"/><rect class="cls-93" x="72.55" y="1046.15" width="191.72" height="0.58" transform="translate(-691.1 425.58) rotate(-45)"/><circle class="cls-93" cx="204.86" cy="999.38" r="0.83" transform="translate(-647.12 437.53) rotate(-45)"/><circle class="cls-93" cx="192.88" cy="1011.36" r="0.83" transform="translate(-659.13 432.61) rotate(-45)"/><circle class="cls-93" cx="178.1" cy="1026.14" r="0.83" transform="translate(-673.91 426.48) rotate(-45)"/><circle class="cls-93" cx="160.08" cy="1044.16" r="0.83" transform="translate(-691.9 418.98) rotate(-45)"/></svg>