<svg id="_ÎÓÈ_1" data-name="—ÎÓÈ_1" xmlns="http://www.w3.org/2000/svg" viewBox="0 0 177.61 176.35"><defs><style>.cls-1{fill:#151b26;}.cls-2{fill:#fff;}.cls-3{fill:#ff9cb6;}.cls-4{fill:#303d56;}.cls-5{fill:#3f5070;}.cls-6{fill:#212a3b;}.cls-7{fill:#e1d8c7;}.cls-8{fill:#eeecdf;}.cls-9{fill:#999;}</style></defs><title>casette</title><path class="cls-1" d="M105.52,205.53c6.52.69,21.23,1.82,23,10.26,1.67,8-12.91,9.82-17.45,11-4.34,1.13-9.26,3.58-10.45,8.29-1.59,6.3,7.19,8,11.45,8.26,9.87.56,19.63-4.63,29.44-2.4,5.15,1.17,5.74,5.89,5.3,10.36s-1.85,9.21-.07,13.49c2.11,5.06,9.44,5.54,14,5.18,13.87-1.09,16.61-14.38,18.35-25.92,2.27-15.06,3.7-38.59,23.55-39.77a9.88,9.88,0,0,0,2.47-.8c-13,.78-21.44,7.83-25.13,20.31s-2.21,27.46-8.77,39.15c-3.75,6.69-11.85,7.95-18.43,4.48-4.37-2.31-4.25-7.56-3.77-11.79.47-4,1.92-9-.4-12.74-3-4.76-11.64-4.35-16.08-3.66-6.94,1.09-24.88,7.72-28.89-2-3.33-8.08,10-10.38,14.51-11.64,4.8-1.34,13.19-3.83,13.26-10,.09-8.65-17.83-10.26-23.16-10.82-.86-.09-2.28.87-2.78.82Z" transform="translate(-61.19 -93.71)"/><path class="cls-1" d="M130.34,124.38a26.68,26.68,0,1,0,0,37.74A26.68,26.68,0,0,0,130.34,124.38Zm-25.71,25.71a9.67,9.67,0,1,1,13.68,0A9.67,9.67,0,0,1,104.64,150.09Z" transform="translate(-61.19 -93.71)"/><rect class="cls-2" x="114.78" y="136.61" width="4.16" height="2.56" rx="0.83" ry="0.83" transform="translate(-124.47 29.3) rotate(-45)"/><rect class="cls-2" x="108.27" y="133.83" width="2.56" height="4.16" rx="0.83" ry="0.83" transform="translate(-92.64 -60.72) rotate(-15)"/><rect class="cls-2" x="102.89" y="139.17" width="2.56" height="4.16" rx="0.83" ry="0.83" transform="translate(-120.41 111.61) rotate(-75)"/><rect class="cls-2" x="104.03" y="147.29" width="4.16" height="2.56" rx="0.83" ry="0.83" transform="translate(-135.17 24.83) rotate(-45)"/><rect class="cls-2" x="112.14" y="148.47" width="2.56" height="4.16" rx="0.83" ry="0.83" transform="translate(-96.29 -59.23) rotate(-15)"/><rect class="cls-2" x="117.51" y="143.14" width="2.56" height="4.16" rx="0.83" ry="0.83" transform="translate(-113.42 128.65) rotate(-75)"/><path class="cls-2" d="M120.56,134.17a12.84,12.84,0,1,0,0,18.16A12.84,12.84,0,0,0,120.56,134.17Zm-15,15a8.31,8.31,0,1,1,11.75,0A8.31,8.31,0,0,1,105.6,149.12Z" transform="translate(-61.19 -93.71)"/><path class="cls-3" d="M137.18,117.54a36.36,36.36,0,1,0,0,51.42A36.36,36.36,0,0,0,137.18,117.54Zm-3.54,3.54a31.25,31.25,0,0,1,5.53,7.49l-14.84,7.62a14.62,14.62,0,0,0-5.85-5.83l7.62-14.84A31.25,31.25,0,0,1,133.65,121.08ZM80.19,144.94A31.41,31.41,0,0,1,84,128.18l14.09,9.08a14.73,14.73,0,0,0-1.24,6.86Zm23.33,6.27a11.26,11.26,0,1,1,15.92,0A11.26,11.26,0,0,1,103.52,151.21Zm6.28,23.33.82-16.65a14.73,14.73,0,0,0,6.87-1.25l9.08,14.09A31.41,31.41,0,0,1,109.79,174.54Z" transform="translate(-61.19 -93.71)"/><path class="cls-1" d="M188.52,122.93a20.32,20.32,0,1,0,20.32,20.32A20.32,20.32,0,0,0,188.52,122.93Zm0,31.28a11,11,0,1,1,11-11A11,11,0,0,1,188.52,154.21Z" transform="translate(-61.19 -93.71)"/><rect class="cls-2" x="126.07" y="39.86" width="2.56" height="4.16" rx="0.83" ry="0.83"/><rect class="cls-2" x="180.69" y="137.34" width="2.56" height="4.16" rx="0.83" ry="0.83" transform="translate(-90.94 133.6) rotate(-60)"/><rect class="cls-2" x="179.87" y="145.71" width="4.16" height="2.56" rx="0.83" ry="0.83" transform="translate(-110.31 16.94) rotate(-30)"/><rect class="cls-2" x="126.02" y="55.01" width="2.56" height="4.16" rx="0.83" ry="0.83"/><rect class="cls-2" x="193.79" y="144.96" width="2.56" height="4.16" rx="0.83" ry="0.83" transform="matrix(0.5, -0.87, 0.87, 0.5, -91, 148.73)"/><rect class="cls-2" x="193.01" y="138.19" width="4.16" height="2.56" rx="0.83" ry="0.83" transform="translate(-104.79 22.5) rotate(-30)"/><path class="cls-2" d="M188.53,130.4a12.84,12.84,0,1,0,12.84,12.84A12.84,12.84,0,0,0,188.53,130.4Zm0,21.15a8.31,8.31,0,1,1,8.31-8.31A8.31,8.31,0,0,1,188.52,151.55Z" transform="translate(-61.19 -93.71)"/><path class="cls-3" d="M188.53,106.89a36.36,36.36,0,1,0,36.36,36.36A36.36,36.36,0,0,0,188.53,106.89Zm0,5a31.25,31.25,0,0,1,9.21,1.38l-5.1,15.88a14.62,14.62,0,0,0-8.26,0l-5.1-15.88A31.25,31.25,0,0,1,188.53,111.89ZM167.6,166.57A31.41,31.41,0,0,1,158.43,152l16.39-3.54a14.73,14.73,0,0,0,4,5.73Zm20.93-12.06a11.26,11.26,0,1,1,11.26-11.26A11.26,11.26,0,0,1,188.53,154.5Zm20.94,12.06-11.2-12.35a14.73,14.73,0,0,0,4-5.75L218.62,152A31.41,31.41,0,0,1,209.46,166.56Z" transform="translate(-61.19 -93.71)"/><path class="cls-4" d="M233.8,93.71H66.2a5,5,0,0,0-5,5V201.28a5,5,0,0,0,5,5H233.8a5,5,0,0,0,5-5V98.72A5,5,0,0,0,233.8,93.71Zm-.25,66a2.5,2.5,0,0,1-2.5,2.5H68.95a2.5,2.5,0,0,1-2.5-2.5V126.23a2.5,2.5,0,0,1,2.5-2.5h162.1a2.5,2.5,0,0,1,2.5,2.5Z" transform="translate(-61.19 -93.71)"/><path class="cls-5" d="M97.82,179.77a6,6,0,0,0-5.89,4.83l-4.34,21.69H212.41l-4.34-21.69a6,6,0,0,0-5.89-4.83Z" transform="translate(-61.19 -93.71)"/><path class="cls-4" d="M97.82,182.27a3.51,3.51,0,0,0-3.43,2.82l-4.24,21.2H209.86l-4.24-21.2a3.51,3.51,0,0,0-3.43-2.82Z" transform="translate(-61.19 -93.71)"/><circle class="cls-6" cx="45.36" cy="106.13" r="4.25"/><circle class="cls-1" cx="45.36" cy="106.13" r="2.75"/><circle class="cls-6" cx="132.25" cy="106.13" r="4.25"/><circle class="cls-1" cx="132.25" cy="106.13" r="2.75"/><rect class="cls-6" x="59.54" y="100.82" width="8.01" height="5.75" rx="1.5" ry="1.5"/><rect class="cls-1" x="123.36" y="194.9" width="2.75" height="5" transform="translate(260.95 -21.04) rotate(90)"/><rect class="cls-6" x="110.07" y="100.82" width="8.01" height="5.75" rx="1.5" ry="1.5"/><rect class="cls-1" x="173.89" y="194.9" width="2.75" height="5" transform="translate(311.48 -71.57) rotate(90)"/><circle class="cls-7" cx="150" cy="189.46" r="4.25" transform="translate(-151.23 67.84) rotate(-45)"/><path class="cls-4" d="M151.68,190.49l-1-1,1-1a.46.46,0,1,0-.65-.65l-1,1-1-1a.46.46,0,1,0-.65.65l1,1-1,1a.46.46,0,1,0,.65.65l1-1,1,1a.46.46,0,0,0,.65-.65Z" transform="translate(-61.19 -93.71)"/><circle class="cls-7" cx="67.95" cy="100.47" r="4.25" transform="translate(-112.33 -16.24) rotate(-45)"/><path class="cls-4" d="M69,98.79l-1,1-1-1a.46.46,0,1,0-.65.65l1,1-1,1a.46.46,0,0,0,.65.65l1-1,1,1a.46.46,0,0,0,.65-.65l-1-1,1-1a.46.46,0,0,0-.65-.65Z" transform="translate(-61.19 -93.71)"/><circle class="cls-7" cx="170.86" cy="6.75" r="4.25"/><path class="cls-4" d="M234,100h-1.46V98.55a.46.46,0,1,0-.92,0V100h-1.46a.46.46,0,1,0,0,.92h1.46v1.46a.46.46,0,1,0,.92,0v-1.46H234a.46.46,0,0,0,0-.92Z" transform="translate(-61.19 -93.71)"/><circle class="cls-7" cx="6.75" cy="105.82" r="4.25"/><path class="cls-4" d="M69.87,199.07H68.41v-1.46a.46.46,0,1,0-.92,0v1.46H66a.46.46,0,1,0,0,.92h1.46v1.46a.46.46,0,1,0,.92,0V200h1.46a.46.46,0,0,0,0-.92Z" transform="translate(-61.19 -93.71)"/><circle class="cls-7" cx="232.05" cy="199.53" r="4.25" transform="translate(-134.32 128.81) rotate(-45)"/><path class="cls-4" d="M233.73,200.56l-1-1,1-1a.46.46,0,0,0-.65-.65l-1,1-1-1a.46.46,0,0,0-.65.65l1,1-1,1a.46.46,0,0,0,.65.65l1-1,1,1a.46.46,0,0,0,.65-.65Z" transform="translate(-61.19 -93.71)"/><rect class="cls-8" x="5.25" y="72.05" width="167.11" height="11.51" rx="2.5" ry="2.5"/><path class="cls-8" d="M231.82,107.22a6.76,6.76,0,0,1-6.75-6.75h0a.73.73,0,0,0-.72-.74H75.19a.73.73,0,0,0-.72.74h0a6.76,6.76,0,0,1-6.75,6.75l-.48,0a.72.72,0,0,0-.79.72v10.81a2.5,2.5,0,0,0,2.5,2.5h162.1a2.5,2.5,0,0,0,2.5-2.5V107.87a.73.73,0,0,0-.84-.71A6.44,6.44,0,0,1,231.82,107.22Z" transform="translate(-61.19 -93.71)"/><path class="cls-9" d="M129,174.93h0a.57.57,0,0,1-.57-.57v-4.19a.57.57,0,0,1,.57-.57h0a.57.57,0,0,1,.57.57v4.19A.57.57,0,0,1,129,174.93Z" transform="translate(-61.19 -93.71)"/><path class="cls-9" d="M139.48,174.93h0a.57.57,0,0,1-.57-.57v-4.19a.57.57,0,0,1,.57-.57h0a.57.57,0,0,1,.57.57v4.19A.57.57,0,0,1,139.48,174.93Z" transform="translate(-61.19 -93.71)"/><path class="cls-9" d="M150,174.93h0a.57.57,0,0,1-.57-.57v-4.19a.57.57,0,0,1,.57-.57h0a.57.57,0,0,1,.57.57v4.19A.57.57,0,0,1,150,174.93Z" transform="translate(-61.19 -93.71)"/><path class="cls-9" d="M160.52,174.93h0a.57.57,0,0,1-.57-.57v-4.19a.57.57,0,0,1,.57-.57h0a.57.57,0,0,1,.57.57v4.19A.57.57,0,0,1,160.52,174.93Z" transform="translate(-61.19 -93.71)"/><path class="cls-9" d="M171,174.93h0a.57.57,0,0,1-.57-.57v-4.19a.57.57,0,0,1,.57-.57h0a.57.57,0,0,1,.57.57v4.19A.57.57,0,0,1,171,174.93Z" transform="translate(-61.19 -93.71)"/><path class="cls-9" d="M77.29,111.14h0a.46.46,0,0,1,.46-.46H222.26a.46.46,0,0,1,.46.46h0a.46.46,0,0,1-.46.46H77.74A.46.46,0,0,1,77.29,111.14Z" transform="translate(-61.19 -93.71)"/></svg>